<?xml version="1.0" encoding="UTF-8"?>
<!DOCTYPE svg PUBLIC "-//W3C//DTD SVG 1.1//EN" "http://www.w3.org/Graphics/SVG/1.1/DTD/svg11.dtd">
<svg xmlns="http://www.w3.org/2000/svg" version="1.1" width="310px" height="310px" style="shape-rendering:geometricPrecision; text-rendering:geometricPrecision; image-rendering:optimizeQuality; fill-rule:evenodd; clip-rule:evenodd" xmlns:xlink="http://www.w3.org/1999/xlink">
<g><path style="opacity:1" fill="#4f5fee" d="M 107.5,0.5 C 107.5,0.166667 107.5,-0.166667 107.5,-0.5C 174.833,-0.5 242.167,-0.5 309.5,-0.5C 309.5,69.1667 309.5,138.833 309.5,208.5C 305.197,193.863 299.697,179.53 293,165.5C 272.449,127.73 252.449,89.7298 233,51.5C 219.087,31.3128 200.587,17.1462 177.5,9C 154.637,2.37698 131.304,-0.456352 107.5,0.5 Z"/></g>
<g><path style="opacity:1" fill="#fbfbfe" d="M 107.5,0.5 C 131.304,-0.456352 154.637,2.37698 177.5,9C 200.587,17.1462 219.087,31.3128 233,51.5C 252.449,89.7298 272.449,127.73 293,165.5C 299.697,179.53 305.197,193.863 309.5,208.5C 309.5,216.167 309.5,223.833 309.5,231.5C 303.964,258.379 289.964,279.879 267.5,296C 258.929,300.785 250.263,305.285 241.5,309.5C 239.833,309.5 238.167,309.5 236.5,309.5C 230.163,293.826 222.496,278.826 213.5,264.5C 171.944,271.567 132.611,265.401 95.5,246C 84.8205,239.412 75.9872,230.912 69,220.5C 47.4894,176.226 25.8228,132.226 4,88.5C -3.28051,66.2339 1.88615,47.4006 19.5,32C 29.0309,24.3991 39.3643,18.0658 50.5,13C 68.9587,6.46933 87.9587,2.30267 107.5,0.5 Z"/></g>
<g><path style="opacity:1" fill="#505fee" d="M 16.5,75.5 C 15.9673,68.4392 17.3006,61.7726 20.5,55.5C 21.684,52.1393 23.5173,49.1393 26,46.5C 40.3612,33.0644 57.1945,23.8978 76.5,19C 107.352,12.492 138.018,13.1587 168.5,21C 196.657,30.8254 216.824,49.3254 229,76.5C 240.503,98.8385 252.003,121.172 263.5,143.5C 255.119,140.517 246.452,137.017 237.5,133C 229.705,131.468 222.039,129.468 214.5,127C 192.501,125.017 170.501,125.017 148.5,127C 138.413,129.355 128.413,132.022 118.5,135C 103.469,140.772 89.9689,148.939 78,159.5C 73.5742,165.363 69.4075,171.363 65.5,177.5C 50.8122,147.614 35.6455,117.947 20,88.5C 18.2226,84.2943 17.056,79.961 16.5,75.5 Z"/></g>
<g><path style="opacity:1" fill="#fbfbfe" d="M 106.5,34.5 C 111.099,34.2 115.599,34.5333 120,35.5C 131.486,59.1394 142.986,82.8061 154.5,106.5C 150.198,107.364 145.864,108.03 141.5,108.5C 139.626,108.61 138.126,107.944 137,106.5C 126.309,82.7854 114.809,59.4521 102.5,36.5C 103.949,35.8281 105.282,35.1614 106.5,34.5 Z"/></g>
<g><path style="opacity:1" fill="#fafafe" d="M 156.5,37.5 C 164.089,38.524 170.922,41.1907 177,45.5C 186.529,65.5595 196.362,85.5595 206.5,105.5C 200.446,106.629 194.446,106.296 188.5,104.5C 177.494,82.1599 166.827,59.8266 156.5,37.5 Z"/></g>
<g><path style="opacity:1" fill="#fafafe" d="M 65.5,44.5 C 67.8333,44.5 70.1667,44.5 72.5,44.5C 83.492,68.9666 95.1587,93.1333 107.5,117C 103.479,119.607 99.1461,121.774 94.5,123.5C 81.818,99.1962 69.4847,74.5295 57.5,49.5C 60.2308,47.8084 62.8975,46.1417 65.5,44.5 Z"/></g>
<g><path style="opacity:1" fill="#7f88f2" d="M 20.5,55.5 C 17.3006,61.7726 15.9673,68.4392 16.5,75.5C 14.4405,68.185 15.7739,61.5183 20.5,55.5 Z"/></g>
<g><path style="opacity:1" fill="#4f5fee" d="M -0.5,-0.5 C 35.5,-0.5 71.5,-0.5 107.5,-0.5C 107.5,-0.166667 107.5,0.166667 107.5,0.5C 87.9587,2.30267 68.9587,6.46933 50.5,13C 39.3643,18.0658 29.0309,24.3991 19.5,32C 1.88615,47.4006 -3.28051,66.2339 4,88.5C 25.8228,132.226 47.4894,176.226 69,220.5C 75.9872,230.912 84.8205,239.412 95.5,246C 132.611,265.401 171.944,271.567 213.5,264.5C 222.496,278.826 230.163,293.826 236.5,309.5C 157.5,309.5 78.5,309.5 -0.5,309.5C -0.5,206.167 -0.5,102.833 -0.5,-0.5 Z"/></g>
<g><path style="opacity:1" fill="#4f5fee" d="M 170.5,140.5 C 197.458,136.985 223.458,140.819 248.5,152C 289.105,173.813 302.272,206.647 288,250.5C 278.673,270.003 264.173,283.67 244.5,291.5C 220.728,240.728 196.062,190.395 170.5,140.5 Z"/></g>
<g><path style="opacity:1" fill="#505fee" d="M 149.5,140.5 C 151.467,140.261 153.301,140.594 155,141.5C 173.122,178.077 190.956,214.744 208.5,251.5C 170.062,257.817 134.062,251.317 100.5,232C 93.9729,226.806 88.1395,220.973 83,214.5C 74.7152,199.187 76.0485,184.854 87,171.5C 98.8244,159.393 112.991,150.893 129.5,146C 136.308,144.224 142.974,142.391 149.5,140.5 Z"/></g>
<g><path style="opacity:1" fill="#505fee" d="M 309.5,231.5 C 309.5,257.5 309.5,283.5 309.5,309.5C 286.833,309.5 264.167,309.5 241.5,309.5C 250.263,305.285 258.929,300.785 267.5,296C 289.964,279.879 303.964,258.379 309.5,231.5 Z"/></g>
</svg>
