<?xml version="1.0" encoding="UTF-8"?>
<!DOCTYPE svg PUBLIC "-//W3C//DTD SVG 1.1//EN" "http://www.w3.org/Graphics/SVG/1.1/DTD/svg11.dtd">
<svg xmlns="http://www.w3.org/2000/svg" version="1.1" width="1088px" height="1088px" style="shape-rendering:geometricPrecision; text-rendering:geometricPrecision; image-rendering:optimizeQuality; fill-rule:evenodd; clip-rule:evenodd" xmlns:xlink="http://www.w3.org/1999/xlink">
<g><path style="opacity:1" fill="#0b2fac" d="M 3.5,-0.5 C 363.5,-0.5 723.5,-0.5 1083.5,-0.5C 1083.5,359.5 1083.5,719.5 1083.5,1079.5C 723.5,1079.5 363.5,1079.5 3.5,1079.5C 3.5,1069.83 3.5,1060.17 3.5,1050.5C 3.5,700.5 3.5,350.5 3.5,0.5C 3.5,0.166667 3.5,-0.166667 3.5,-0.5 Z"/></g>
<g><path style="opacity:0.016" fill="#6b6b6b" d="M 1087.5,210.5 C 1087.5,211.833 1087.5,213.167 1087.5,214.5C 1087.17,214.5 1086.83,214.5 1086.5,214.5C 1085.88,214.083 1085.54,213.416 1085.5,212.5C 1085.75,211.287 1086.41,210.62 1087.5,210.5 Z"/></g>
<g><path style="opacity:1" fill="#fdfdfe" d="M 462.5,241.5 C 503.741,239.154 543.741,244.987 582.5,259C 626.544,277.933 658.711,309.1 679,352.5C 714.806,432.917 750.806,513.25 787,593.5C 810.253,661.744 799.587,724.078 755,780.5C 732.426,805.616 705.426,824.283 674,836.5C 661.479,807.581 648.979,778.748 636.5,750C 626.882,750.708 617.215,751.375 607.5,752C 546.165,757.667 490.165,743.334 439.5,709C 421.3,695.136 407.134,677.969 397,657.5C 363.481,577.641 329.481,497.975 295,418.5C 280.761,377.928 287.427,341.261 315,308.5C 332.905,288.292 354.405,273.126 379.5,263C 406.119,251.351 433.786,244.184 462.5,241.5 Z"/></g>
<g><path style="opacity:1" fill="#0d2fac" d="M 461.5,277.5 C 492.303,275.58 522.636,278.414 552.5,286C 592.314,299.15 622.48,323.983 643,360.5C 664.979,408.289 686.812,456.122 708.5,504C 649.532,475.755 587.866,468.422 523.5,482C 487.131,490.684 454.798,507.017 426.5,531C 415.247,542.337 406.081,555.17 399,569.5C 374.814,514.617 350.814,459.617 327,404.5C 318.521,380.374 321.855,358.041 337,337.5C 352.469,319.173 371.303,305.339 393.5,296C 415.359,286.371 438.025,280.205 461.5,277.5 Z"/></g>
<g><path style="opacity:1" fill="#fcfcfe" d="M 478.5,312.5 C 483.762,312.195 488.928,312.529 494,313.5C 511.332,355.336 528.166,397.336 544.5,439.5C 532.423,441.068 520.423,443.068 508.5,445.5C 491.077,403.582 474.41,361.249 458.5,318.5C 458.818,317.353 459.484,316.519 460.5,316C 466.626,314.741 472.626,313.574 478.5,312.5 Z"/></g>
<g><path style="opacity:1" fill="#fcfcfe" d="M 542.5,322.5 C 552.561,324.682 562.561,327.182 572.5,330C 577.006,331.172 581.173,333.005 585,335.5C 600.314,371.958 615.48,408.458 630.5,445C 617.482,444.313 604.482,443.147 591.5,441.5C 575.365,401.765 559.032,362.098 542.5,322.5 Z"/></g>
<g><path style="opacity:1" fill="#fcfcfe" d="M 412.5,338.5 C 415.48,338.241 417.313,339.574 418,342.5C 435.445,381.721 452.611,421.055 469.5,460.5C 469.182,461.647 468.516,462.481 467.5,463C 457.263,466.704 447.097,470.537 437,474.5C 419.003,432.679 401.169,390.846 383.5,349C 393.303,345.568 402.97,342.068 412.5,338.5 Z"/></g>
<g><path style="opacity:0.016" fill="#6b6b6b" d="M 1087.5,466.5 C 1087.5,467.833 1087.5,469.167 1087.5,470.5C 1087.17,470.5 1086.83,470.5 1086.5,470.5C 1085.88,470.083 1085.54,469.416 1085.5,468.5C 1085.75,467.287 1086.41,466.62 1087.5,466.5 Z"/></g>
<g><path style="opacity:1" fill="#475dbe" d="M 602.5,512.5 C 593.318,512.173 584.318,512.507 575.5,513.5C 574.957,513.44 574.624,513.107 574.5,512.5C 583.992,511.178 593.325,511.178 602.5,512.5 Z"/></g>
<g><path style="opacity:1" fill="#0c2fac" d="M 602.5,512.5 C 644.725,513.848 682.392,527.348 715.5,553C 752.791,588.198 768.291,631.365 762,682.5C 754.736,728.075 731.736,763.075 693,787.5C 653.169,696.523 614.002,605.19 575.5,513.5C 584.318,512.507 593.318,512.173 602.5,512.5 Z"/></g>
<g><path style="opacity:1" fill="#0d2fac" d="M 537.5,515.5 C 539.559,518.611 541.392,521.944 543,525.5C 568.948,588.73 595.448,651.73 622.5,714.5C 563.447,724.79 509.114,713.29 459.5,680C 441.258,666.668 429.091,649.168 423,627.5C 419.556,604.842 425.223,584.842 440,567.5C 466.793,539.519 499.293,522.186 537.5,515.5 Z"/></g>
<g><path style="opacity:0.045" fill="#181818" d="M 0.5,-0.5 C 1.16667,-0.5 1.83333,-0.5 2.5,-0.5C 2.5,0.166667 2.83333,0.5 3.5,0.5C 3.5,350.5 3.5,700.5 3.5,1050.5C 2.5,1050.5 1.5,1050.5 0.5,1050.5C 0.5,1049.83 0.166667,1049.5 -0.5,1049.5C -0.5,1047.83 -0.5,1046.17 -0.5,1044.5C 0.833333,1044.17 0.833333,1043.83 -0.5,1043.5C -0.5,1042.83 -0.5,1042.17 -0.5,1041.5C 0.833333,1041.17 0.833333,1040.83 -0.5,1040.5C -0.5,1040.17 -0.5,1039.83 -0.5,1039.5C 0.833333,1039.17 0.833333,1038.83 -0.5,1038.5C -0.5,1037.5 -0.5,1036.5 -0.5,1035.5C 0.833333,1034.83 0.833333,1034.17 -0.5,1033.5C -0.5,1032.83 -0.5,1032.17 -0.5,1031.5C 0.833333,1030.83 0.833333,1030.17 -0.5,1029.5C -0.5,1026.83 -0.5,1024.17 -0.5,1021.5C 0.833333,1021.17 0.833333,1020.83 -0.5,1020.5C -0.5,1018.5 -0.5,1016.5 -0.5,1014.5C 0.833333,1014.17 0.833333,1013.83 -0.5,1013.5C -0.5,1013.17 -0.5,1012.83 -0.5,1012.5C 0.833333,1012.17 0.833333,1011.83 -0.5,1011.5C -0.5,1011.17 -0.5,1010.83 -0.5,1010.5C 0.833333,1010.17 0.833333,1009.83 -0.5,1009.5C -0.5,1007.83 -0.5,1006.17 -0.5,1004.5C 0.833333,1004.17 0.833333,1003.83 -0.5,1003.5C -0.5,1002.83 -0.5,1002.17 -0.5,1001.5C 0.833333,1001.17 0.833333,1000.83 -0.5,1000.5C -0.5,999.167 -0.5,997.833 -0.5,996.5C 0.833333,996.167 0.833333,995.833 -0.5,995.5C -0.5,994.833 -0.5,994.167 -0.5,993.5C 0.833333,993.167 0.833333,992.833 -0.5,992.5C -0.5,991.5 -0.5,990.5 -0.5,989.5C 0.833333,989.167 0.833333,988.833 -0.5,988.5C -0.5,988.167 -0.5,987.833 -0.5,987.5C 0.833333,987.167 0.833333,986.833 -0.5,986.5C -0.5,985.833 -0.5,985.167 -0.5,984.5C 0.833333,984.167 0.833333,983.833 -0.5,983.5C -0.5,983.167 -0.5,982.833 -0.5,982.5C 0.833333,982.167 0.833333,981.833 -0.5,981.5C -0.5,980.833 -0.5,980.167 -0.5,979.5C 0.833333,978.833 0.833333,978.167 -0.5,977.5C -0.5,972.5 -0.5,967.5 -0.5,962.5C 0.833333,962.167 0.833333,961.833 -0.5,961.5C -0.5,960.833 -0.5,960.167 -0.5,959.5C 0.833333,959.167 0.833333,958.833 -0.5,958.5C -0.5,957.5 -0.5,956.5 -0.5,955.5C 0.833333,955.167 0.833333,954.833 -0.5,954.5C -0.5,951.5 -0.5,948.5 -0.5,945.5C 0.833333,945.167 0.833333,944.833 -0.5,944.5C -0.5,944.167 -0.5,943.833 -0.5,943.5C 0.833333,943.167 0.833333,942.833 -0.5,942.5C -0.5,942.167 -0.5,941.833 -0.5,941.5C 0.833333,941.167 0.833333,940.833 -0.5,940.5C -0.5,937.5 -0.5,934.5 -0.5,931.5C 0.833333,931.167 0.833333,930.833 -0.5,930.5C -0.5,930.167 -0.5,929.833 -0.5,929.5C 0.833333,929.167 0.833333,928.833 -0.5,928.5C -0.5,928.167 -0.5,927.833 -0.5,927.5C 0.833333,927.167 0.833333,926.833 -0.5,926.5C -0.5,924.833 -0.5,923.167 -0.5,921.5C 0.833333,921.167 0.833333,920.833 -0.5,920.5C -0.5,919.5 -0.5,918.5 -0.5,917.5C 0.833333,917.167 0.833333,916.833 -0.5,916.5C -0.5,915.833 -0.5,915.167 -0.5,914.5C 0.833333,914.167 0.833333,913.833 -0.5,913.5C -0.5,911.5 -0.5,909.5 -0.5,907.5C 0.833333,907.167 0.833333,906.833 -0.5,906.5C -0.5,901.167 -0.5,895.833 -0.5,890.5C 0.833333,890.167 0.833333,889.833 -0.5,889.5C -0.5,888.833 -0.5,888.167 -0.5,887.5C 0.833333,887.167 0.833333,886.833 -0.5,886.5C -0.5,885.167 -0.5,883.833 -0.5,882.5C 0.833333,882.167 0.833333,881.833 -0.5,881.5C -0.5,877.833 -0.5,874.167 -0.5,870.5C 0.833333,870.167 0.833333,869.833 -0.5,869.5C -0.5,866.833 -0.5,864.167 -0.5,861.5C 0.833333,861.167 0.833333,860.833 -0.5,860.5C -0.5,860.167 -0.5,859.833 -0.5,859.5C 0.833333,859.167 0.833333,858.833 -0.5,858.5C -0.5,855.833 -0.5,853.167 -0.5,850.5C 0.833333,850.167 0.833333,849.833 -0.5,849.5C -0.5,848.833 -0.5,848.167 -0.5,847.5C 0.833333,847.167 0.833333,846.833 -0.5,846.5C -0.5,845.833 -0.5,845.167 -0.5,844.5C 0.833333,844.167 0.833333,843.833 -0.5,843.5C -0.5,841.5 -0.5,839.5 -0.5,837.5C 0.833333,837.167 0.833333,836.833 -0.5,836.5C -0.5,835.167 -0.5,833.833 -0.5,832.5C 0.833333,832.167 0.833333,831.833 -0.5,831.5C -0.5,827.833 -0.5,824.167 -0.5,820.5C 0.833333,820.167 0.833333,819.833 -0.5,819.5C -0.5,819.167 -0.5,818.833 -0.5,818.5C 0.833333,818.167 0.833333,817.833 -0.5,817.5C -0.5,813.5 -0.5,809.5 -0.5,805.5C 0.833333,805.167 0.833333,804.833 -0.5,804.5C -0.5,803.5 -0.5,802.5 -0.5,801.5C 0.833333,801.167 0.833333,800.833 -0.5,800.5C -0.5,799.833 -0.5,799.167 -0.5,798.5C 0.833333,798.167 0.833333,797.833 -0.5,797.5C -0.5,796.5 -0.5,795.5 -0.5,794.5C 0.833333,794.167 0.833333,793.833 -0.5,793.5C -0.5,791.833 -0.5,790.167 -0.5,788.5C 0.833333,788.167 0.833333,787.833 -0.5,787.5C -0.5,786.833 -0.5,786.167 -0.5,785.5C 0.833333,785.167 0.833333,784.833 -0.5,784.5C -0.5,784.167 -0.5,783.833 -0.5,783.5C 0.833333,783.167 0.833333,782.833 -0.5,782.5C -0.5,781.5 -0.5,780.5 -0.5,779.5C 0.833333,778.833 0.833333,778.167 -0.5,777.5C -0.5,776.833 -0.5,776.167 -0.5,775.5C 0.833333,774.833 0.833333,774.167 -0.5,773.5C -0.5,770.833 -0.5,768.167 -0.5,765.5C 0.833333,765.167 0.833333,764.833 -0.5,764.5C -0.5,762.5 -0.5,760.5 -0.5,758.5C 0.833333,758.167 0.833333,757.833 -0.5,757.5C -0.5,757.167 -0.5,756.833 -0.5,756.5C 0.833333,756.167 0.833333,755.833 -0.5,755.5C -0.5,755.167 -0.5,754.833 -0.5,754.5C 0.833333,754.167 0.833333,753.833 -0.5,753.5C -0.5,751.833 -0.5,750.167 -0.5,748.5C 0.833333,748.167 0.833333,747.833 -0.5,747.5C -0.5,746.833 -0.5,746.167 -0.5,745.5C 0.833333,745.167 0.833333,744.833 -0.5,744.5C -0.5,743.167 -0.5,741.833 -0.5,740.5C 0.833333,740.167 0.833333,739.833 -0.5,739.5C -0.5,738.833 -0.5,738.167 -0.5,737.5C 0.833333,737.167 0.833333,736.833 -0.5,736.5C -0.5,735.5 -0.5,734.5 -0.5,733.5C 0.833333,733.167 0.833333,732.833 -0.5,732.5C -0.5,732.167 -0.5,731.833 -0.5,731.5C 0.833333,731.167 0.833333,730.833 -0.5,730.5C -0.5,729.833 -0.5,729.167 -0.5,728.5C 0.833333,728.167 0.833333,727.833 -0.5,727.5C -0.5,727.167 -0.5,726.833 -0.5,726.5C 0.833333,726.167 0.833333,725.833 -0.5,725.5C -0.5,724.833 -0.5,724.167 -0.5,723.5C 0.833333,722.833 0.833333,722.167 -0.5,721.5C -0.5,716.5 -0.5,711.5 -0.5,706.5C 0.833333,706.167 0.833333,705.833 -0.5,705.5C -0.5,704.833 -0.5,704.167 -0.5,703.5C 0.833333,703.167 0.833333,702.833 -0.5,702.5C -0.5,701.5 -0.5,700.5 -0.5,699.5C 0.833333,699.167 0.833333,698.833 -0.5,698.5C -0.5,695.5 -0.5,692.5 -0.5,689.5C 0.833333,689.167 0.833333,688.833 -0.5,688.5C -0.5,688.167 -0.5,687.833 -0.5,687.5C 0.833333,687.167 0.833333,686.833 -0.5,686.5C -0.5,686.167 -0.5,685.833 -0.5,685.5C 0.833333,685.167 0.833333,684.833 -0.5,684.5C -0.5,681.5 -0.5,678.5 -0.5,675.5C 0.833333,675.167 0.833333,674.833 -0.5,674.5C -0.5,674.167 -0.5,673.833 -0.5,673.5C 0.833333,673.167 0.833333,672.833 -0.5,672.5C -0.5,672.167 -0.5,671.833 -0.5,671.5C 0.833333,671.167 0.833333,670.833 -0.5,670.5C -0.5,668.833 -0.5,667.167 -0.5,665.5C 0.833333,665.167 0.833333,664.833 -0.5,664.5C -0.5,663.5 -0.5,662.5 -0.5,661.5C 0.833333,661.167 0.833333,660.833 -0.5,660.5C -0.5,659.833 -0.5,659.167 -0.5,658.5C 0.833333,658.167 0.833333,657.833 -0.5,657.5C -0.5,655.5 -0.5,653.5 -0.5,651.5C 0.833333,651.167 0.833333,650.833 -0.5,650.5C -0.5,645.167 -0.5,639.833 -0.5,634.5C 0.833333,634.167 0.833333,633.833 -0.5,633.5C -0.5,632.833 -0.5,632.167 -0.5,631.5C 0.833333,631.167 0.833333,630.833 -0.5,630.5C -0.5,629.167 -0.5,627.833 -0.5,626.5C 0.833333,626.167 0.833333,625.833 -0.5,625.5C -0.5,621.833 -0.5,618.167 -0.5,614.5C 0.833333,614.167 0.833333,613.833 -0.5,613.5C -0.5,610.833 -0.5,608.167 -0.5,605.5C 0.833333,605.167 0.833333,604.833 -0.5,604.5C -0.5,604.167 -0.5,603.833 -0.5,603.5C 0.833333,603.167 0.833333,602.833 -0.5,602.5C -0.5,599.833 -0.5,597.167 -0.5,594.5C 0.833333,594.167 0.833333,593.833 -0.5,593.5C -0.5,592.833 -0.5,592.167 -0.5,591.5C 0.833333,591.167 0.833333,590.833 -0.5,590.5C -0.5,589.833 -0.5,589.167 -0.5,588.5C 0.833333,588.167 0.833333,587.833 -0.5,587.5C -0.5,585.5 -0.5,583.5 -0.5,581.5C 0.833333,581.167 0.833333,580.833 -0.5,580.5C -0.5,579.167 -0.5,577.833 -0.5,576.5C 0.833333,576.167 0.833333,575.833 -0.5,575.5C -0.5,571.833 -0.5,568.167 -0.5,564.5C 0.833333,564.167 0.833333,563.833 -0.5,563.5C -0.5,563.167 -0.5,562.833 -0.5,562.5C 0.833333,562.167 0.833333,561.833 -0.5,561.5C -0.5,557.5 -0.5,553.5 -0.5,549.5C 0.833333,549.167 0.833333,548.833 -0.5,548.5C -0.5,547.5 -0.5,546.5 -0.5,545.5C 0.833333,545.167 0.833333,544.833 -0.5,544.5C -0.5,543.833 -0.5,543.167 -0.5,542.5C 0.833333,542.167 0.833333,541.833 -0.5,541.5C -0.5,540.5 -0.5,539.5 -0.5,538.5C 0.833333,538.167 0.833333,537.833 -0.5,537.5C -0.5,535.833 -0.5,534.167 -0.5,532.5C 0.833333,532.167 0.833333,531.833 -0.5,531.5C -0.5,530.833 -0.5,530.167 -0.5,529.5C 0.833333,529.167 0.833333,528.833 -0.5,528.5C -0.5,528.167 -0.5,527.833 -0.5,527.5C 0.833333,527.167 0.833333,526.833 -0.5,526.5C -0.5,525.5 -0.5,524.5 -0.5,523.5C 0.833333,522.833 0.833333,522.167 -0.5,521.5C -0.5,520.833 -0.5,520.167 -0.5,519.5C 0.833333,518.833 0.833333,518.167 -0.5,517.5C -0.5,514.833 -0.5,512.167 -0.5,509.5C 0.833333,509.167 0.833333,508.833 -0.5,508.5C -0.5,506.5 -0.5,504.5 -0.5,502.5C 0.833333,502.167 0.833333,501.833 -0.5,501.5C -0.5,501.167 -0.5,500.833 -0.5,500.5C 0.833333,500.167 0.833333,499.833 -0.5,499.5C -0.5,499.167 -0.5,498.833 -0.5,498.5C 0.833333,498.167 0.833333,497.833 -0.5,497.5C -0.5,495.833 -0.5,494.167 -0.5,492.5C 0.833333,492.167 0.833333,491.833 -0.5,491.5C -0.5,490.833 -0.5,490.167 -0.5,489.5C 0.833333,489.167 0.833333,488.833 -0.5,488.5C -0.5,487.167 -0.5,485.833 -0.5,484.5C 0.833333,484.167 0.833333,483.833 -0.5,483.5C -0.5,482.833 -0.5,482.167 -0.5,481.5C 0.833333,481.167 0.833333,480.833 -0.5,480.5C -0.5,479.5 -0.5,478.5 -0.5,477.5C 0.833333,477.167 0.833333,476.833 -0.5,476.5C -0.5,476.167 -0.5,475.833 -0.5,475.5C 0.833333,475.167 0.833333,474.833 -0.5,474.5C -0.5,473.833 -0.5,473.167 -0.5,472.5C 0.833333,472.167 0.833333,471.833 -0.5,471.5C -0.5,471.167 -0.5,470.833 -0.5,470.5C 0.833333,470.167 0.833333,469.833 -0.5,469.5C -0.5,468.833 -0.5,468.167 -0.5,467.5C 0.833333,466.833 0.833333,466.167 -0.5,465.5C -0.5,460.5 -0.5,455.5 -0.5,450.5C 0.833333,450.167 0.833333,449.833 -0.5,449.5C -0.5,448.833 -0.5,448.167 -0.5,447.5C 0.833333,447.167 0.833333,446.833 -0.5,446.5C -0.5,445.5 -0.5,444.5 -0.5,443.5C 0.833333,443.167 0.833333,442.833 -0.5,442.5C -0.5,439.5 -0.5,436.5 -0.5,433.5C 0.833333,433.167 0.833333,432.833 -0.5,432.5C -0.5,432.167 -0.5,431.833 -0.5,431.5C 0.833333,431.167 0.833333,430.833 -0.5,430.5C -0.5,430.167 -0.5,429.833 -0.5,429.5C 0.833333,429.167 0.833333,428.833 -0.5,428.5C -0.5,425.5 -0.5,422.5 -0.5,419.5C 0.833333,419.167 0.833333,418.833 -0.5,418.5C -0.5,418.167 -0.5,417.833 -0.5,417.5C 0.833333,417.167 0.833333,416.833 -0.5,416.5C -0.5,416.167 -0.5,415.833 -0.5,415.5C 0.833333,415.167 0.833333,414.833 -0.5,414.5C -0.5,412.833 -0.5,411.167 -0.5,409.5C 0.833333,409.167 0.833333,408.833 -0.5,408.5C -0.5,407.5 -0.5,406.5 -0.5,405.5C 0.833333,405.167 0.833333,404.833 -0.5,404.5C -0.5,403.833 -0.5,403.167 -0.5,402.5C 0.833333,402.167 0.833333,401.833 -0.5,401.5C -0.5,399.5 -0.5,397.5 -0.5,395.5C 0.833333,395.167 0.833333,394.833 -0.5,394.5C -0.5,389.167 -0.5,383.833 -0.5,378.5C 0.833333,378.167 0.833333,377.833 -0.5,377.5C -0.5,376.833 -0.5,376.167 -0.5,375.5C 0.833333,375.167 0.833333,374.833 -0.5,374.5C -0.5,373.167 -0.5,371.833 -0.5,370.5C 0.833333,370.167 0.833333,369.833 -0.5,369.5C -0.5,365.833 -0.5,362.167 -0.5,358.5C 0.833333,358.167 0.833333,357.833 -0.5,357.5C -0.5,354.833 -0.5,352.167 -0.5,349.5C 0.833333,349.167 0.833333,348.833 -0.5,348.5C -0.5,348.167 -0.5,347.833 -0.5,347.5C 0.833333,347.167 0.833333,346.833 -0.5,346.5C -0.5,343.833 -0.5,341.167 -0.5,338.5C 0.833333,338.167 0.833333,337.833 -0.5,337.5C -0.5,336.833 -0.5,336.167 -0.5,335.5C 0.833333,335.167 0.833333,334.833 -0.5,334.5C -0.5,333.833 -0.5,333.167 -0.5,332.5C 0.833333,332.167 0.833333,331.833 -0.5,331.5C -0.5,329.5 -0.5,327.5 -0.5,325.5C 0.833333,325.167 0.833333,324.833 -0.5,324.5C -0.5,323.167 -0.5,321.833 -0.5,320.5C 0.833333,320.167 0.833333,319.833 -0.5,319.5C -0.5,315.833 -0.5,312.167 -0.5,308.5C 0.833333,308.167 0.833333,307.833 -0.5,307.5C -0.5,307.167 -0.5,306.833 -0.5,306.5C 0.833333,306.167 0.833333,305.833 -0.5,305.5C -0.5,301.5 -0.5,297.5 -0.5,293.5C 0.833333,293.167 0.833333,292.833 -0.5,292.5C -0.5,291.5 -0.5,290.5 -0.5,289.5C 0.833333,289.167 0.833333,288.833 -0.5,288.5C -0.5,287.833 -0.5,287.167 -0.5,286.5C 0.833333,286.167 0.833333,285.833 -0.5,285.5C -0.5,284.5 -0.5,283.5 -0.5,282.5C 0.833333,282.167 0.833333,281.833 -0.5,281.5C -0.5,279.833 -0.5,278.167 -0.5,276.5C 0.833333,276.167 0.833333,275.833 -0.5,275.5C -0.5,274.833 -0.5,274.167 -0.5,273.5C 0.833333,273.167 0.833333,272.833 -0.5,272.5C -0.5,272.167 -0.5,271.833 -0.5,271.5C 0.833333,271.167 0.833333,270.833 -0.5,270.5C -0.5,269.5 -0.5,268.5 -0.5,267.5C 0.833333,266.833 0.833333,266.167 -0.5,265.5C -0.5,264.833 -0.5,264.167 -0.5,263.5C 0.833333,262.833 0.833333,262.167 -0.5,261.5C -0.5,258.833 -0.5,256.167 -0.5,253.5C 0.833333,253.167 0.833333,252.833 -0.5,252.5C -0.5,250.5 -0.5,248.5 -0.5,246.5C 0.833333,246.167 0.833333,245.833 -0.5,245.5C -0.5,245.167 -0.5,244.833 -0.5,244.5C 0.833333,244.167 0.833333,243.833 -0.5,243.5C -0.5,243.167 -0.5,242.833 -0.5,242.5C 0.833333,242.167 0.833333,241.833 -0.5,241.5C -0.5,239.833 -0.5,238.167 -0.5,236.5C 0.833333,236.167 0.833333,235.833 -0.5,235.5C -0.5,234.833 -0.5,234.167 -0.5,233.5C 0.833333,233.167 0.833333,232.833 -0.5,232.5C -0.5,231.167 -0.5,229.833 -0.5,228.5C 0.833333,228.167 0.833333,227.833 -0.5,227.5C -0.5,226.833 -0.5,226.167 -0.5,225.5C 0.833333,225.167 0.833333,224.833 -0.5,224.5C -0.5,223.5 -0.5,222.5 -0.5,221.5C 0.833333,221.167 0.833333,220.833 -0.5,220.5C -0.5,220.167 -0.5,219.833 -0.5,219.5C 0.833333,219.167 0.833333,218.833 -0.5,218.5C -0.5,217.833 -0.5,217.167 -0.5,216.5C 0.833333,216.167 0.833333,215.833 -0.5,215.5C -0.5,215.167 -0.5,214.833 -0.5,214.5C 0.833333,214.167 0.833333,213.833 -0.5,213.5C -0.5,212.833 -0.5,212.167 -0.5,211.5C 0.833333,210.833 0.833333,210.167 -0.5,209.5C -0.5,204.5 -0.5,199.5 -0.5,194.5C 0.833333,194.167 0.833333,193.833 -0.5,193.5C -0.5,192.833 -0.5,192.167 -0.5,191.5C 0.833333,191.167 0.833333,190.833 -0.5,190.5C -0.5,189.5 -0.5,188.5 -0.5,187.5C 0.833333,187.167 0.833333,186.833 -0.5,186.5C -0.5,183.5 -0.5,180.5 -0.5,177.5C 0.833333,177.167 0.833333,176.833 -0.5,176.5C -0.5,176.167 -0.5,175.833 -0.5,175.5C 0.833333,175.167 0.833333,174.833 -0.5,174.5C -0.5,174.167 -0.5,173.833 -0.5,173.5C 0.833333,173.167 0.833333,172.833 -0.5,172.5C -0.5,169.5 -0.5,166.5 -0.5,163.5C 0.833333,163.167 0.833333,162.833 -0.5,162.5C -0.5,162.167 -0.5,161.833 -0.5,161.5C 0.833333,161.167 0.833333,160.833 -0.5,160.5C -0.5,160.167 -0.5,159.833 -0.5,159.5C 0.833333,159.167 0.833333,158.833 -0.5,158.5C -0.5,156.833 -0.5,155.167 -0.5,153.5C 0.833333,153.167 0.833333,152.833 -0.5,152.5C -0.5,151.5 -0.5,150.5 -0.5,149.5C 0.833333,149.167 0.833333,148.833 -0.5,148.5C -0.5,147.833 -0.5,147.167 -0.5,146.5C 0.833333,146.167 0.833333,145.833 -0.5,145.5C -0.5,143.5 -0.5,141.5 -0.5,139.5C 0.833333,139.167 0.833333,138.833 -0.5,138.5C -0.5,133.167 -0.5,127.833 -0.5,122.5C 0.833333,122.167 0.833333,121.833 -0.5,121.5C -0.5,120.833 -0.5,120.167 -0.5,119.5C 0.833333,119.167 0.833333,118.833 -0.5,118.5C -0.5,117.167 -0.5,115.833 -0.5,114.5C 0.833333,114.167 0.833333,113.833 -0.5,113.5C -0.5,109.833 -0.5,106.167 -0.5,102.5C 0.833333,102.167 0.833333,101.833 -0.5,101.5C -0.5,98.8333 -0.5,96.1667 -0.5,93.5C 0.833333,93.1667 0.833333,92.8333 -0.5,92.5C -0.5,92.1667 -0.5,91.8333 -0.5,91.5C 0.833333,91.1667 0.833333,90.8333 -0.5,90.5C -0.5,87.8333 -0.5,85.1667 -0.5,82.5C 0.833333,82.1667 0.833333,81.8333 -0.5,81.5C -0.5,80.8333 -0.5,80.1667 -0.5,79.5C 0.833333,79.1667 0.833333,78.8333 -0.5,78.5C -0.5,77.8333 -0.5,77.1667 -0.5,76.5C 0.833333,76.1667 0.833333,75.8333 -0.5,75.5C -0.5,73.5 -0.5,71.5 -0.5,69.5C 0.833333,69.1667 0.833333,68.8333 -0.5,68.5C -0.5,67.1667 -0.5,65.8333 -0.5,64.5C 0.833333,64.1667 0.833333,63.8333 -0.5,63.5C -0.5,59.8333 -0.5,56.1667 -0.5,52.5C 0.833333,52.1667 0.833333,51.8333 -0.5,51.5C -0.5,51.1667 -0.5,50.8333 -0.5,50.5C 0.833333,50.1667 0.833333,49.8333 -0.5,49.5C -0.5,45.5 -0.5,41.5 -0.5,37.5C 0.833333,37.1667 0.833333,36.8333 -0.5,36.5C -0.5,35.5 -0.5,34.5 -0.5,33.5C 0.833333,33.1667 0.833333,32.8333 -0.5,32.5C -0.5,31.8333 -0.5,31.1667 -0.5,30.5C 0.833333,30.1667 0.833333,29.8333 -0.5,29.5C -0.5,28.5 -0.5,27.5 -0.5,26.5C 0.833333,26.1667 0.833333,25.8333 -0.5,25.5C -0.5,23.8333 -0.5,22.1667 -0.5,20.5C 0.833333,20.1667 0.833333,19.8333 -0.5,19.5C -0.5,18.8333 -0.5,18.1667 -0.5,17.5C 0.833333,17.1667 0.833333,16.8333 -0.5,16.5C -0.5,16.1667 -0.5,15.8333 -0.5,15.5C 0.833333,15.1667 0.833333,14.8333 -0.5,14.5C -0.5,13.5 -0.5,12.5 -0.5,11.5C 0.833333,10.8333 0.833333,10.1667 -0.5,9.5C -0.5,8.83333 -0.5,8.16667 -0.5,7.5C 0.833333,6.83333 0.833333,6.16667 -0.5,5.5C -0.5,4.16667 -0.5,2.83333 -0.5,1.5C 1.69772,1.59121 2.03105,0.924541 0.5,-0.5 Z"/></g>
<g><path style="opacity:0.016" fill="#6b6b6b" d="M 1087.5,722.5 C 1087.5,723.833 1087.5,725.167 1087.5,726.5C 1087.17,726.5 1086.83,726.5 1086.5,726.5C 1085.88,726.083 1085.54,725.416 1085.5,724.5C 1085.75,723.287 1086.41,722.62 1087.5,722.5 Z"/></g>
<g><path style="opacity:0.031" fill="#191919" d="M 1083.5,-0.5 C 1083.83,-0.5 1084.17,-0.5 1084.5,-0.5C 1085.5,0.5 1086.5,1.5 1087.5,2.5C 1087.5,2.83333 1087.5,3.16667 1087.5,3.5C 1086.17,4.16667 1086.17,4.83333 1087.5,5.5C 1087.5,7.16667 1087.5,8.83333 1087.5,10.5C 1086.17,10.8333 1086.17,11.1667 1087.5,11.5C 1087.5,11.8333 1087.5,12.1667 1087.5,12.5C 1086.17,12.8333 1086.17,13.1667 1087.5,13.5C 1087.5,13.8333 1087.5,14.1667 1087.5,14.5C 1086.17,15.5 1086.17,16.5 1087.5,17.5C 1087.5,19.1667 1087.5,20.8333 1087.5,22.5C 1086.17,22.8333 1086.17,23.1667 1087.5,23.5C 1087.5,25.8333 1087.5,28.1667 1087.5,30.5C 1086.17,30.8333 1086.17,31.1667 1087.5,31.5C 1087.5,32.1667 1087.5,32.8333 1087.5,33.5C 1086.17,33.8333 1086.17,34.1667 1087.5,34.5C 1087.5,34.8333 1087.5,35.1667 1087.5,35.5C 1086.17,35.8333 1086.17,36.1667 1087.5,36.5C 1087.5,36.8333 1087.5,37.1667 1087.5,37.5C 1086.17,38.1667 1086.17,38.8333 1087.5,39.5C 1087.5,39.8333 1087.5,40.1667 1087.5,40.5C 1086.17,40.8333 1086.17,41.1667 1087.5,41.5C 1087.5,41.8333 1087.5,42.1667 1087.5,42.5C 1086.17,42.8333 1086.17,43.1667 1087.5,43.5C 1087.5,43.8333 1087.5,44.1667 1087.5,44.5C 1086.17,45.8333 1086.17,47.1667 1087.5,48.5C 1087.5,48.8333 1087.5,49.1667 1087.5,49.5C 1086.17,50.5 1086.17,51.5 1087.5,52.5C 1087.5,53.8333 1087.5,55.1667 1087.5,56.5C 1086.17,56.8333 1086.17,57.1667 1087.5,57.5C 1087.5,58.5 1087.5,59.5 1087.5,60.5C 1086.17,61.5 1086.17,62.5 1087.5,63.5C 1087.5,63.8333 1087.5,64.1667 1087.5,64.5C 1086.17,65.1667 1086.17,65.8333 1087.5,66.5C 1087.5,67.1667 1087.5,67.8333 1087.5,68.5C 1086.17,68.8333 1086.17,69.1667 1087.5,69.5C 1087.5,69.8333 1087.5,70.1667 1087.5,70.5C 1086.17,71.5 1086.17,72.5 1087.5,73.5C 1087.5,74.1667 1087.5,74.8333 1087.5,75.5C 1086.17,75.8333 1086.17,76.1667 1087.5,76.5C 1087.5,78.1667 1087.5,79.8333 1087.5,81.5C 1086.17,82.5 1086.17,83.5 1087.5,84.5C 1087.5,86.8333 1087.5,89.1667 1087.5,91.5C 1086.17,91.8333 1086.17,92.1667 1087.5,92.5C 1087.5,93.5 1087.5,94.5 1087.5,95.5C 1086.17,95.8333 1086.17,96.1667 1087.5,96.5C 1087.5,98.1667 1087.5,99.8333 1087.5,101.5C 1086.17,102.167 1086.17,102.833 1087.5,103.5C 1087.5,104.167 1087.5,104.833 1087.5,105.5C 1086.17,106.5 1086.17,107.5 1087.5,108.5C 1087.5,109.167 1087.5,109.833 1087.5,110.5C 1086.17,111.167 1086.17,111.833 1087.5,112.5C 1087.5,112.833 1087.5,113.167 1087.5,113.5C 1086.17,114.167 1086.17,114.833 1087.5,115.5C 1087.5,116.167 1087.5,116.833 1087.5,117.5C 1086.17,118.167 1086.17,118.833 1087.5,119.5C 1087.5,121.167 1087.5,122.833 1087.5,124.5C 1086.17,124.833 1086.17,125.167 1087.5,125.5C 1087.5,125.833 1087.5,126.167 1087.5,126.5C 1086.17,127.5 1086.17,128.5 1087.5,129.5C 1087.5,130.167 1087.5,130.833 1087.5,131.5C 1086.17,131.833 1086.17,132.167 1087.5,132.5C 1087.5,133.5 1087.5,134.5 1087.5,135.5C 1086.17,136.167 1086.17,136.833 1087.5,137.5C 1087.5,137.833 1087.5,138.167 1087.5,138.5C 1086.17,139.167 1086.17,139.833 1087.5,140.5C 1087.5,142.5 1087.5,144.5 1087.5,146.5C 1086.17,147.167 1086.17,147.833 1087.5,148.5C 1087.5,148.833 1087.5,149.167 1087.5,149.5C 1086.17,150.5 1086.17,151.5 1087.5,152.5C 1087.5,153.167 1087.5,153.833 1087.5,154.5C 1086.17,155.167 1086.17,155.833 1087.5,156.5C 1087.5,157.167 1087.5,157.833 1087.5,158.5C 1086.17,158.833 1086.17,159.167 1087.5,159.5C 1087.5,160.167 1087.5,160.833 1087.5,161.5C 1086.17,162.167 1086.17,162.833 1087.5,163.5C 1087.5,163.833 1087.5,164.167 1087.5,164.5C 1086.17,165.167 1086.17,165.833 1087.5,166.5C 1087.5,168.5 1087.5,170.5 1087.5,172.5C 1086.17,172.833 1086.17,173.167 1087.5,173.5C 1087.5,174.167 1087.5,174.833 1087.5,175.5C 1086.17,175.833 1086.17,176.167 1087.5,176.5C 1087.5,177.167 1087.5,177.833 1087.5,178.5C 1086.17,178.833 1086.17,179.167 1087.5,179.5C 1087.5,180.5 1087.5,181.5 1087.5,182.5C 1086.17,183.167 1086.17,183.833 1087.5,184.5C 1087.5,185.167 1087.5,185.833 1087.5,186.5C 1086.17,186.833 1086.17,187.167 1087.5,187.5C 1087.5,188.5 1087.5,189.5 1087.5,190.5C 1086.17,190.833 1086.17,191.167 1087.5,191.5C 1087.5,192.833 1087.5,194.167 1087.5,195.5C 1086.17,195.833 1086.17,196.167 1087.5,196.5C 1087.5,197.167 1087.5,197.833 1087.5,198.5C 1086.17,199.833 1086.17,201.167 1087.5,202.5C 1087.5,202.833 1087.5,203.167 1087.5,203.5C 1086.17,204.5 1086.17,205.5 1087.5,206.5C 1087.5,206.833 1087.5,207.167 1087.5,207.5C 1086.17,208.167 1086.17,208.833 1087.5,209.5C 1087.5,209.833 1087.5,210.167 1087.5,210.5C 1086.41,210.62 1085.75,211.287 1085.5,212.5C 1085.54,213.416 1085.88,214.083 1086.5,214.5C 1086.5,215.167 1086.83,215.5 1087.5,215.5C 1087.5,217.5 1087.5,219.5 1087.5,221.5C 1086.17,221.833 1086.17,222.167 1087.5,222.5C 1087.5,223.5 1087.5,224.5 1087.5,225.5C 1086.17,226.167 1086.17,226.833 1087.5,227.5C 1087.5,228.833 1087.5,230.167 1087.5,231.5C 1086.17,231.833 1086.17,232.167 1087.5,232.5C 1087.5,232.833 1087.5,233.167 1087.5,233.5C 1086.17,233.833 1086.17,234.167 1087.5,234.5C 1087.5,235.167 1087.5,235.833 1087.5,236.5C 1086.17,236.833 1086.17,237.167 1087.5,237.5C 1087.5,238.167 1087.5,238.833 1087.5,239.5C 1086.17,240.167 1086.17,240.833 1087.5,241.5C 1087.5,241.833 1087.5,242.167 1087.5,242.5C 1086.17,242.833 1086.17,243.167 1087.5,243.5C 1087.5,243.833 1087.5,244.167 1087.5,244.5C 1086.17,244.833 1086.17,245.167 1087.5,245.5C 1087.5,247.5 1087.5,249.5 1087.5,251.5C 1086.17,251.833 1086.17,252.167 1087.5,252.5C 1087.5,252.833 1087.5,253.167 1087.5,253.5C 1086.17,253.833 1086.17,254.167 1087.5,254.5C 1087.5,255.5 1087.5,256.5 1087.5,257.5C 1086.17,257.833 1086.17,258.167 1087.5,258.5C 1087.5,259.167 1087.5,259.833 1087.5,260.5C 1086.17,260.833 1086.17,261.167 1087.5,261.5C 1087.5,263.167 1087.5,264.833 1087.5,266.5C 1086.17,266.833 1086.17,267.167 1087.5,267.5C 1087.5,267.833 1087.5,268.167 1087.5,268.5C 1086.17,268.833 1086.17,269.167 1087.5,269.5C 1087.5,269.833 1087.5,270.167 1087.5,270.5C 1086.17,271.5 1086.17,272.5 1087.5,273.5C 1087.5,275.167 1087.5,276.833 1087.5,278.5C 1086.17,278.833 1086.17,279.167 1087.5,279.5C 1087.5,281.833 1087.5,284.167 1087.5,286.5C 1086.17,286.833 1086.17,287.167 1087.5,287.5C 1087.5,288.167 1087.5,288.833 1087.5,289.5C 1086.17,289.833 1086.17,290.167 1087.5,290.5C 1087.5,290.833 1087.5,291.167 1087.5,291.5C 1086.17,291.833 1086.17,292.167 1087.5,292.5C 1087.5,292.833 1087.5,293.167 1087.5,293.5C 1086.17,294.167 1086.17,294.833 1087.5,295.5C 1087.5,295.833 1087.5,296.167 1087.5,296.5C 1086.17,296.833 1086.17,297.167 1087.5,297.5C 1087.5,297.833 1087.5,298.167 1087.5,298.5C 1086.17,298.833 1086.17,299.167 1087.5,299.5C 1087.5,299.833 1087.5,300.167 1087.5,300.5C 1086.17,301.833 1086.17,303.167 1087.5,304.5C 1087.5,304.833 1087.5,305.167 1087.5,305.5C 1086.17,306.5 1086.17,307.5 1087.5,308.5C 1087.5,309.833 1087.5,311.167 1087.5,312.5C 1086.17,312.833 1086.17,313.167 1087.5,313.5C 1087.5,314.5 1087.5,315.5 1087.5,316.5C 1086.17,317.5 1086.17,318.5 1087.5,319.5C 1087.5,319.833 1087.5,320.167 1087.5,320.5C 1086.17,321.167 1086.17,321.833 1087.5,322.5C 1087.5,323.167 1087.5,323.833 1087.5,324.5C 1086.17,324.833 1086.17,325.167 1087.5,325.5C 1087.5,325.833 1087.5,326.167 1087.5,326.5C 1086.17,327.5 1086.17,328.5 1087.5,329.5C 1087.5,330.167 1087.5,330.833 1087.5,331.5C 1086.17,331.833 1086.17,332.167 1087.5,332.5C 1087.5,334.167 1087.5,335.833 1087.5,337.5C 1086.17,338.5 1086.17,339.5 1087.5,340.5C 1087.5,342.833 1087.5,345.167 1087.5,347.5C 1086.17,347.833 1086.17,348.167 1087.5,348.5C 1087.5,349.5 1087.5,350.5 1087.5,351.5C 1086.17,351.833 1086.17,352.167 1087.5,352.5C 1087.5,354.167 1087.5,355.833 1087.5,357.5C 1086.17,358.167 1086.17,358.833 1087.5,359.5C 1087.5,360.167 1087.5,360.833 1087.5,361.5C 1086.17,362.5 1086.17,363.5 1087.5,364.5C 1087.5,365.167 1087.5,365.833 1087.5,366.5C 1086.17,367.167 1086.17,367.833 1087.5,368.5C 1087.5,368.833 1087.5,369.167 1087.5,369.5C 1086.17,370.167 1086.17,370.833 1087.5,371.5C 1087.5,372.167 1087.5,372.833 1087.5,373.5C 1086.17,374.167 1086.17,374.833 1087.5,375.5C 1087.5,377.167 1087.5,378.833 1087.5,380.5C 1086.17,380.833 1086.17,381.167 1087.5,381.5C 1087.5,381.833 1087.5,382.167 1087.5,382.5C 1086.17,383.5 1086.17,384.5 1087.5,385.5C 1087.5,386.167 1087.5,386.833 1087.5,387.5C 1086.17,387.833 1086.17,388.167 1087.5,388.5C 1087.5,389.5 1087.5,390.5 1087.5,391.5C 1086.17,392.167 1086.17,392.833 1087.5,393.5C 1087.5,393.833 1087.5,394.167 1087.5,394.5C 1086.17,395.167 1086.17,395.833 1087.5,396.5C 1087.5,398.5 1087.5,400.5 1087.5,402.5C 1086.17,403.167 1086.17,403.833 1087.5,404.5C 1087.5,404.833 1087.5,405.167 1087.5,405.5C 1086.17,406.5 1086.17,407.5 1087.5,408.5C 1087.5,409.167 1087.5,409.833 1087.5,410.5C 1086.17,411.167 1086.17,411.833 1087.5,412.5C 1087.5,413.167 1087.5,413.833 1087.5,414.5C 1086.17,414.833 1086.17,415.167 1087.5,415.5C 1087.5,416.167 1087.5,416.833 1087.5,417.5C 1086.17,418.167 1086.17,418.833 1087.5,419.5C 1087.5,419.833 1087.5,420.167 1087.5,420.5C 1086.17,421.167 1086.17,421.833 1087.5,422.5C 1087.5,424.5 1087.5,426.5 1087.5,428.5C 1086.17,428.833 1086.17,429.167 1087.5,429.5C 1087.5,430.167 1087.5,430.833 1087.5,431.5C 1086.17,431.833 1086.17,432.167 1087.5,432.5C 1087.5,433.167 1087.5,433.833 1087.5,434.5C 1086.17,434.833 1086.17,435.167 1087.5,435.5C 1087.5,436.5 1087.5,437.5 1087.5,438.5C 1086.17,439.167 1086.17,439.833 1087.5,440.5C 1087.5,441.167 1087.5,441.833 1087.5,442.5C 1086.17,442.833 1086.17,443.167 1087.5,443.5C 1087.5,444.5 1087.5,445.5 1087.5,446.5C 1086.17,446.833 1086.17,447.167 1087.5,447.5C 1087.5,448.833 1087.5,450.167 1087.5,451.5C 1086.17,451.833 1086.17,452.167 1087.5,452.5C 1087.5,453.167 1087.5,453.833 1087.5,454.5C 1086.17,455.833 1086.17,457.167 1087.5,458.5C 1087.5,458.833 1087.5,459.167 1087.5,459.5C 1086.17,460.5 1086.17,461.5 1087.5,462.5C 1087.5,462.833 1087.5,463.167 1087.5,463.5C 1086.17,464.167 1086.17,464.833 1087.5,465.5C 1087.5,465.833 1087.5,466.167 1087.5,466.5C 1086.41,466.62 1085.75,467.287 1085.5,468.5C 1085.54,469.416 1085.88,470.083 1086.5,470.5C 1086.5,471.167 1086.83,471.5 1087.5,471.5C 1087.5,473.5 1087.5,475.5 1087.5,477.5C 1086.17,477.833 1086.17,478.167 1087.5,478.5C 1087.5,479.5 1087.5,480.5 1087.5,481.5C 1086.17,482.167 1086.17,482.833 1087.5,483.5C 1087.5,484.833 1087.5,486.167 1087.5,487.5C 1086.17,487.833 1086.17,488.167 1087.5,488.5C 1087.5,488.833 1087.5,489.167 1087.5,489.5C 1086.17,489.833 1086.17,490.167 1087.5,490.5C 1087.5,491.167 1087.5,491.833 1087.5,492.5C 1086.17,492.833 1086.17,493.167 1087.5,493.5C 1087.5,494.167 1087.5,494.833 1087.5,495.5C 1086.17,496.167 1086.17,496.833 1087.5,497.5C 1087.5,497.833 1087.5,498.167 1087.5,498.5C 1086.17,498.833 1086.17,499.167 1087.5,499.5C 1087.5,499.833 1087.5,500.167 1087.5,500.5C 1086.17,500.833 1086.17,501.167 1087.5,501.5C 1087.5,503.5 1087.5,505.5 1087.5,507.5C 1086.17,507.833 1086.17,508.167 1087.5,508.5C 1087.5,508.833 1087.5,509.167 1087.5,509.5C 1086.17,509.833 1086.17,510.167 1087.5,510.5C 1087.5,511.5 1087.5,512.5 1087.5,513.5C 1086.17,513.833 1086.17,514.167 1087.5,514.5C 1087.5,515.167 1087.5,515.833 1087.5,516.5C 1086.17,516.833 1086.17,517.167 1087.5,517.5C 1087.5,519.167 1087.5,520.833 1087.5,522.5C 1086.17,522.833 1086.17,523.167 1087.5,523.5C 1087.5,523.833 1087.5,524.167 1087.5,524.5C 1086.17,524.833 1086.17,525.167 1087.5,525.5C 1087.5,525.833 1087.5,526.167 1087.5,526.5C 1086.17,527.5 1086.17,528.5 1087.5,529.5C 1087.5,531.167 1087.5,532.833 1087.5,534.5C 1086.17,534.833 1086.17,535.167 1087.5,535.5C 1087.5,537.833 1087.5,540.167 1087.5,542.5C 1086.17,542.833 1086.17,543.167 1087.5,543.5C 1087.5,544.167 1087.5,544.833 1087.5,545.5C 1086.17,545.833 1086.17,546.167 1087.5,546.5C 1087.5,546.833 1087.5,547.167 1087.5,547.5C 1086.17,547.833 1086.17,548.167 1087.5,548.5C 1087.5,548.833 1087.5,549.167 1087.5,549.5C 1086.17,550.167 1086.17,550.833 1087.5,551.5C 1087.5,551.833 1087.5,552.167 1087.5,552.5C 1086.17,552.833 1086.17,553.167 1087.5,553.5C 1087.5,553.833 1087.5,554.167 1087.5,554.5C 1086.17,554.833 1086.17,555.167 1087.5,555.5C 1087.5,555.833 1087.5,556.167 1087.5,556.5C 1086.17,557.833 1086.17,559.167 1087.5,560.5C 1087.5,560.833 1087.5,561.167 1087.5,561.5C 1086.17,562.5 1086.17,563.5 1087.5,564.5C 1087.5,565.833 1087.5,567.167 1087.5,568.5C 1086.17,568.833 1086.17,569.167 1087.5,569.5C 1087.5,570.5 1087.5,571.5 1087.5,572.5C 1086.17,573.5 1086.17,574.5 1087.5,575.5C 1087.5,575.833 1087.5,576.167 1087.5,576.5C 1086.17,577.167 1086.17,577.833 1087.5,578.5C 1087.5,579.167 1087.5,579.833 1087.5,580.5C 1086.17,580.833 1086.17,581.167 1087.5,581.5C 1087.5,581.833 1087.5,582.167 1087.5,582.5C 1086.17,583.5 1086.17,584.5 1087.5,585.5C 1087.5,586.167 1087.5,586.833 1087.5,587.5C 1086.17,587.833 1086.17,588.167 1087.5,588.5C 1087.5,590.167 1087.5,591.833 1087.5,593.5C 1086.17,594.5 1086.17,595.5 1087.5,596.5C 1087.5,598.833 1087.5,601.167 1087.5,603.5C 1086.17,603.833 1086.17,604.167 1087.5,604.5C 1087.5,605.5 1087.5,606.5 1087.5,607.5C 1086.17,607.833 1086.17,608.167 1087.5,608.5C 1087.5,610.167 1087.5,611.833 1087.5,613.5C 1086.17,614.167 1086.17,614.833 1087.5,615.5C 1087.5,616.167 1087.5,616.833 1087.5,617.5C 1086.17,618.5 1086.17,619.5 1087.5,620.5C 1087.5,621.167 1087.5,621.833 1087.5,622.5C 1086.17,623.167 1086.17,623.833 1087.5,624.5C 1087.5,624.833 1087.5,625.167 1087.5,625.5C 1086.17,626.167 1086.17,626.833 1087.5,627.5C 1087.5,628.167 1087.5,628.833 1087.5,629.5C 1086.17,630.167 1086.17,630.833 1087.5,631.5C 1087.5,633.167 1087.5,634.833 1087.5,636.5C 1086.17,636.833 1086.17,637.167 1087.5,637.5C 1087.5,637.833 1087.5,638.167 1087.5,638.5C 1086.17,639.5 1086.17,640.5 1087.5,641.5C 1087.5,642.167 1087.5,642.833 1087.5,643.5C 1086.17,643.833 1086.17,644.167 1087.5,644.5C 1087.5,645.5 1087.5,646.5 1087.5,647.5C 1086.17,648.167 1086.17,648.833 1087.5,649.5C 1087.5,649.833 1087.5,650.167 1087.5,650.5C 1086.17,651.167 1086.17,651.833 1087.5,652.5C 1087.5,654.5 1087.5,656.5 1087.5,658.5C 1086.17,659.167 1086.17,659.833 1087.5,660.5C 1087.5,660.833 1087.5,661.167 1087.5,661.5C 1086.17,662.5 1086.17,663.5 1087.5,664.5C 1087.5,665.167 1087.5,665.833 1087.5,666.5C 1086.17,667.167 1086.17,667.833 1087.5,668.5C 1087.5,669.167 1087.5,669.833 1087.5,670.5C 1086.17,670.833 1086.17,671.167 1087.5,671.5C 1087.5,672.167 1087.5,672.833 1087.5,673.5C 1086.17,674.167 1086.17,674.833 1087.5,675.5C 1087.5,675.833 1087.5,676.167 1087.5,676.5C 1086.17,677.167 1086.17,677.833 1087.5,678.5C 1087.5,680.5 1087.5,682.5 1087.5,684.5C 1086.17,684.833 1086.17,685.167 1087.5,685.5C 1087.5,686.167 1087.5,686.833 1087.5,687.5C 1086.17,687.833 1086.17,688.167 1087.5,688.5C 1087.5,689.167 1087.5,689.833 1087.5,690.5C 1086.17,690.833 1086.17,691.167 1087.5,691.5C 1087.5,692.5 1087.5,693.5 1087.5,694.5C 1086.17,695.167 1086.17,695.833 1087.5,696.5C 1087.5,697.167 1087.5,697.833 1087.5,698.5C 1086.17,698.833 1086.17,699.167 1087.5,699.5C 1087.5,700.5 1087.5,701.5 1087.5,702.5C 1086.17,702.833 1086.17,703.167 1087.5,703.5C 1087.5,704.833 1087.5,706.167 1087.5,707.5C 1086.17,707.833 1086.17,708.167 1087.5,708.5C 1087.5,709.167 1087.5,709.833 1087.5,710.5C 1086.17,711.833 1086.17,713.167 1087.5,714.5C 1087.5,714.833 1087.5,715.167 1087.5,715.5C 1086.17,716.5 1086.17,717.5 1087.5,718.5C 1087.5,718.833 1087.5,719.167 1087.5,719.5C 1086.17,720.167 1086.17,720.833 1087.5,721.5C 1087.5,721.833 1087.5,722.167 1087.5,722.5C 1086.41,722.62 1085.75,723.287 1085.5,724.5C 1085.54,725.416 1085.88,726.083 1086.5,726.5C 1086.5,727.167 1086.83,727.5 1087.5,727.5C 1087.5,729.5 1087.5,731.5 1087.5,733.5C 1086.17,733.833 1086.17,734.167 1087.5,734.5C 1087.5,735.5 1087.5,736.5 1087.5,737.5C 1086.17,738.167 1086.17,738.833 1087.5,739.5C 1087.5,740.833 1087.5,742.167 1087.5,743.5C 1086.17,743.833 1086.17,744.167 1087.5,744.5C 1087.5,744.833 1087.5,745.167 1087.5,745.5C 1086.17,745.833 1086.17,746.167 1087.5,746.5C 1087.5,747.167 1087.5,747.833 1087.5,748.5C 1086.17,748.833 1086.17,749.167 1087.5,749.5C 1087.5,750.167 1087.5,750.833 1087.5,751.5C 1086.17,752.167 1086.17,752.833 1087.5,753.5C 1087.5,753.833 1087.5,754.167 1087.5,754.5C 1086.17,754.833 1086.17,755.167 1087.5,755.5C 1087.5,755.833 1087.5,756.167 1087.5,756.5C 1086.17,756.833 1086.17,757.167 1087.5,757.5C 1087.5,759.5 1087.5,761.5 1087.5,763.5C 1086.17,763.833 1086.17,764.167 1087.5,764.5C 1087.5,764.833 1087.5,765.167 1087.5,765.5C 1086.17,765.833 1086.17,766.167 1087.5,766.5C 1087.5,767.5 1087.5,768.5 1087.5,769.5C 1086.17,769.833 1086.17,770.167 1087.5,770.5C 1087.5,771.167 1087.5,771.833 1087.5,772.5C 1086.17,772.833 1086.17,773.167 1087.5,773.5C 1087.5,775.167 1087.5,776.833 1087.5,778.5C 1086.17,778.833 1086.17,779.167 1087.5,779.5C 1087.5,779.833 1087.5,780.167 1087.5,780.5C 1086.17,780.833 1086.17,781.167 1087.5,781.5C 1087.5,781.833 1087.5,782.167 1087.5,782.5C 1086.17,783.5 1086.17,784.5 1087.5,785.5C 1087.5,787.167 1087.5,788.833 1087.5,790.5C 1086.17,790.833 1086.17,791.167 1087.5,791.5C 1087.5,793.833 1087.5,796.167 1087.5,798.5C 1086.17,798.833 1086.17,799.167 1087.5,799.5C 1087.5,800.167 1087.5,800.833 1087.5,801.5C 1086.17,801.833 1086.17,802.167 1087.5,802.5C 1087.5,802.833 1087.5,803.167 1087.5,803.5C 1086.17,803.833 1086.17,804.167 1087.5,804.5C 1087.5,804.833 1087.5,805.167 1087.5,805.5C 1086.17,806.167 1086.17,806.833 1087.5,807.5C 1087.5,807.833 1087.5,808.167 1087.5,808.5C 1086.17,808.833 1086.17,809.167 1087.5,809.5C 1087.5,809.833 1087.5,810.167 1087.5,810.5C 1086.17,810.833 1086.17,811.167 1087.5,811.5C 1087.5,811.833 1087.5,812.167 1087.5,812.5C 1086.17,813.833 1086.17,815.167 1087.5,816.5C 1087.5,816.833 1087.5,817.167 1087.5,817.5C 1086.17,818.5 1086.17,819.5 1087.5,820.5C 1087.5,821.833 1087.5,823.167 1087.5,824.5C 1086.17,824.833 1086.17,825.167 1087.5,825.5C 1087.5,826.5 1087.5,827.5 1087.5,828.5C 1086.17,829.5 1086.17,830.5 1087.5,831.5C 1087.5,831.833 1087.5,832.167 1087.5,832.5C 1086.17,833.167 1086.17,833.833 1087.5,834.5C 1087.5,835.167 1087.5,835.833 1087.5,836.5C 1086.17,836.833 1086.17,837.167 1087.5,837.5C 1087.5,837.833 1087.5,838.167 1087.5,838.5C 1086.17,839.5 1086.17,840.5 1087.5,841.5C 1087.5,842.167 1087.5,842.833 1087.5,843.5C 1086.17,843.833 1086.17,844.167 1087.5,844.5C 1087.5,846.167 1087.5,847.833 1087.5,849.5C 1086.17,850.5 1086.17,851.5 1087.5,852.5C 1087.5,854.833 1087.5,857.167 1087.5,859.5C 1086.17,859.833 1086.17,860.167 1087.5,860.5C 1087.5,861.5 1087.5,862.5 1087.5,863.5C 1086.17,863.833 1086.17,864.167 1087.5,864.5C 1087.5,866.167 1087.5,867.833 1087.5,869.5C 1086.17,870.167 1086.17,870.833 1087.5,871.5C 1087.5,872.167 1087.5,872.833 1087.5,873.5C 1086.17,874.5 1086.17,875.5 1087.5,876.5C 1087.5,877.167 1087.5,877.833 1087.5,878.5C 1086.17,879.167 1086.17,879.833 1087.5,880.5C 1087.5,880.833 1087.5,881.167 1087.5,881.5C 1086.17,882.167 1086.17,882.833 1087.5,883.5C 1087.5,884.167 1087.5,884.833 1087.5,885.5C 1086.17,886.167 1086.17,886.833 1087.5,887.5C 1087.5,889.167 1087.5,890.833 1087.5,892.5C 1086.17,892.833 1086.17,893.167 1087.5,893.5C 1087.5,893.833 1087.5,894.167 1087.5,894.5C 1086.17,895.5 1086.17,896.5 1087.5,897.5C 1087.5,898.167 1087.5,898.833 1087.5,899.5C 1086.17,899.833 1086.17,900.167 1087.5,900.5C 1087.5,901.5 1087.5,902.5 1087.5,903.5C 1086.17,904.167 1086.17,904.833 1087.5,905.5C 1087.5,905.833 1087.5,906.167 1087.5,906.5C 1086.17,907.167 1086.17,907.833 1087.5,908.5C 1087.5,910.5 1087.5,912.5 1087.5,914.5C 1086.17,915.167 1086.17,915.833 1087.5,916.5C 1087.5,916.833 1087.5,917.167 1087.5,917.5C 1086.17,918.5 1086.17,919.5 1087.5,920.5C 1087.5,921.167 1087.5,921.833 1087.5,922.5C 1086.17,923.167 1086.17,923.833 1087.5,924.5C 1087.5,925.167 1087.5,925.833 1087.5,926.5C 1086.17,926.833 1086.17,927.167 1087.5,927.5C 1087.5,928.167 1087.5,928.833 1087.5,929.5C 1086.17,930.167 1086.17,930.833 1087.5,931.5C 1087.5,931.833 1087.5,932.167 1087.5,932.5C 1086.17,933.167 1086.17,933.833 1087.5,934.5C 1087.5,936.5 1087.5,938.5 1087.5,940.5C 1086.17,940.833 1086.17,941.167 1087.5,941.5C 1087.5,942.167 1087.5,942.833 1087.5,943.5C 1086.17,943.833 1086.17,944.167 1087.5,944.5C 1087.5,945.167 1087.5,945.833 1087.5,946.5C 1086.17,946.833 1086.17,947.167 1087.5,947.5C 1087.5,948.5 1087.5,949.5 1087.5,950.5C 1086.17,951.167 1086.17,951.833 1087.5,952.5C 1087.5,953.167 1087.5,953.833 1087.5,954.5C 1086.17,954.833 1086.17,955.167 1087.5,955.5C 1087.5,956.5 1087.5,957.5 1087.5,958.5C 1086.17,958.833 1086.17,959.167 1087.5,959.5C 1087.5,960.833 1087.5,962.167 1087.5,963.5C 1086.17,963.833 1086.17,964.167 1087.5,964.5C 1087.5,965.167 1087.5,965.833 1087.5,966.5C 1086.17,967.833 1086.17,969.167 1087.5,970.5C 1087.5,970.833 1087.5,971.167 1087.5,971.5C 1086.17,972.5 1086.17,973.5 1087.5,974.5C 1087.5,974.833 1087.5,975.167 1087.5,975.5C 1086.17,976.167 1086.17,976.833 1087.5,977.5C 1087.5,977.833 1087.5,978.167 1087.5,978.5C 1086.41,978.62 1085.75,979.287 1085.5,980.5C 1085.54,981.416 1085.88,982.083 1086.5,982.5C 1086.5,983.167 1086.83,983.5 1087.5,983.5C 1087.5,985.5 1087.5,987.5 1087.5,989.5C 1086.17,989.833 1086.17,990.167 1087.5,990.5C 1087.5,991.5 1087.5,992.5 1087.5,993.5C 1086.17,994.167 1086.17,994.833 1087.5,995.5C 1087.5,996.833 1087.5,998.167 1087.5,999.5C 1086.17,999.833 1086.17,1000.17 1087.5,1000.5C 1087.5,1000.83 1087.5,1001.17 1087.5,1001.5C 1086.17,1001.83 1086.17,1002.17 1087.5,1002.5C 1087.5,1003.17 1087.5,1003.83 1087.5,1004.5C 1086.17,1004.83 1086.17,1005.17 1087.5,1005.5C 1087.5,1006.17 1087.5,1006.83 1087.5,1007.5C 1086.17,1008.17 1086.17,1008.83 1087.5,1009.5C 1087.5,1009.83 1087.5,1010.17 1087.5,1010.5C 1086.17,1010.83 1086.17,1011.17 1087.5,1011.5C 1087.5,1011.83 1087.5,1012.17 1087.5,1012.5C 1086.17,1012.83 1086.17,1013.17 1087.5,1013.5C 1087.5,1015.5 1087.5,1017.5 1087.5,1019.5C 1086.17,1019.83 1086.17,1020.17 1087.5,1020.5C 1087.5,1020.83 1087.5,1021.17 1087.5,1021.5C 1086.17,1021.83 1086.17,1022.17 1087.5,1022.5C 1087.5,1023.5 1087.5,1024.5 1087.5,1025.5C 1086.17,1025.83 1086.17,1026.17 1087.5,1026.5C 1087.5,1027.17 1087.5,1027.83 1087.5,1028.5C 1086.17,1028.83 1086.17,1029.17 1087.5,1029.5C 1087.5,1031.17 1087.5,1032.83 1087.5,1034.5C 1086.17,1034.83 1086.17,1035.17 1087.5,1035.5C 1087.5,1035.83 1087.5,1036.17 1087.5,1036.5C 1086.17,1036.83 1086.17,1037.17 1087.5,1037.5C 1087.5,1037.83 1087.5,1038.17 1087.5,1038.5C 1086.17,1039.5 1086.17,1040.5 1087.5,1041.5C 1087.5,1043.17 1087.5,1044.83 1087.5,1046.5C 1086.17,1046.83 1086.17,1047.17 1087.5,1047.5C 1087.5,1049.83 1087.5,1052.17 1087.5,1054.5C 1086.17,1054.83 1086.17,1055.17 1087.5,1055.5C 1087.5,1056.17 1087.5,1056.83 1087.5,1057.5C 1086.17,1057.83 1086.17,1058.17 1087.5,1058.5C 1087.5,1058.83 1087.5,1059.17 1087.5,1059.5C 1086.17,1059.83 1086.17,1060.17 1087.5,1060.5C 1087.5,1060.83 1087.5,1061.17 1087.5,1061.5C 1086.17,1062.17 1086.17,1062.83 1087.5,1063.5C 1087.5,1063.83 1087.5,1064.17 1087.5,1064.5C 1086.17,1064.83 1086.17,1065.17 1087.5,1065.5C 1087.5,1065.83 1087.5,1066.17 1087.5,1066.5C 1086.17,1066.83 1086.17,1067.17 1087.5,1067.5C 1087.5,1067.83 1087.5,1068.17 1087.5,1068.5C 1086.17,1069.83 1086.17,1071.17 1087.5,1072.5C 1087.5,1072.83 1087.5,1073.17 1087.5,1073.5C 1086.17,1074.5 1086.17,1075.5 1087.5,1076.5C 1087.5,1077.83 1087.5,1079.17 1087.5,1080.5C 1086.17,1080.83 1086.17,1081.17 1087.5,1081.5C 1087.5,1081.83 1087.5,1082.17 1087.5,1082.5C 1086.53,1084.14 1085.19,1085.47 1083.5,1086.5C 1083.23,1084.55 1083.89,1083.05 1085.5,1082C 1084.93,1081.01 1084.27,1080.17 1083.5,1079.5C 1083.5,719.5 1083.5,359.5 1083.5,-0.5 Z"/></g>
<g><path style="opacity:0.016" fill="#6b6b6b" d="M 1087.5,978.5 C 1087.5,979.833 1087.5,981.167 1087.5,982.5C 1087.17,982.5 1086.83,982.5 1086.5,982.5C 1085.88,982.083 1085.54,981.416 1085.5,980.5C 1085.75,979.287 1086.41,978.62 1087.5,978.5 Z"/></g>
<g><path style="opacity:0.149" fill="#0f0f0f" d="M -0.5,1050.5 C -0.166667,1050.5 0.166667,1050.5 0.5,1050.5C 1.5,1050.5 2.5,1050.5 3.5,1050.5C 3.5,1060.17 3.5,1069.83 3.5,1079.5C 363.5,1079.5 723.5,1079.5 1083.5,1079.5C 1084.27,1080.17 1084.93,1081.01 1085.5,1082C 1083.89,1083.05 1083.23,1084.55 1083.5,1086.5C 1082.51,1086.33 1081.84,1086.66 1081.5,1087.5C 1079.17,1087.5 1076.83,1087.5 1074.5,1087.5C 1074.17,1086.17 1073.83,1086.17 1073.5,1087.5C 1068.83,1087.5 1064.17,1087.5 1059.5,1087.5C 1059.17,1086.17 1058.83,1086.17 1058.5,1087.5C 1058.17,1087.5 1057.83,1087.5 1057.5,1087.5C 1057.17,1086.17 1056.83,1086.17 1056.5,1087.5C 1055.5,1087.5 1054.5,1087.5 1053.5,1087.5C 1052.83,1086.17 1052.17,1086.17 1051.5,1087.5C 1051.17,1087.5 1050.83,1087.5 1050.5,1087.5C 1049.83,1086.17 1049.17,1086.17 1048.5,1087.5C 1047.17,1087.5 1045.83,1087.5 1044.5,1087.5C 1044.17,1086.17 1043.83,1086.17 1043.5,1087.5C 1042.83,1087.5 1042.17,1087.5 1041.5,1087.5C 1041.17,1086.17 1040.83,1086.17 1040.5,1087.5C 1038.17,1087.5 1035.83,1087.5 1033.5,1087.5C 1033.17,1086.17 1032.83,1086.17 1032.5,1087.5C 1031.83,1087.5 1031.17,1087.5 1030.5,1087.5C 1030.17,1086.17 1029.83,1086.17 1029.5,1087.5C 1028.83,1087.5 1028.17,1087.5 1027.5,1087.5C 1026.83,1086.17 1026.17,1086.17 1025.5,1087.5C 1025.17,1087.5 1024.83,1087.5 1024.5,1087.5C 1023.5,1086.17 1022.5,1086.17 1021.5,1087.5C 1020.5,1087.5 1019.5,1087.5 1018.5,1087.5C 1018.17,1086.17 1017.83,1086.17 1017.5,1087.5C 1017.17,1087.5 1016.83,1087.5 1016.5,1087.5C 1016.17,1086.17 1015.83,1086.17 1015.5,1087.5C 1014.83,1087.5 1014.17,1087.5 1013.5,1087.5C 1012.17,1086.17 1010.83,1086.17 1009.5,1087.5C 1009.17,1087.5 1008.83,1087.5 1008.5,1087.5C 1007.83,1086.17 1007.17,1086.17 1006.5,1087.5C 1005.5,1087.5 1004.5,1087.5 1003.5,1087.5C 1003.17,1086.17 1002.83,1086.17 1002.5,1087.5C 1002.17,1087.5 1001.83,1087.5 1001.5,1087.5C 1001.17,1086.17 1000.83,1086.17 1000.5,1087.5C 999.5,1087.5 998.5,1087.5 997.5,1087.5C 996.833,1086.17 996.167,1086.17 995.5,1087.5C 994.167,1087.5 992.833,1087.5 991.5,1087.5C 991.167,1086.17 990.833,1086.17 990.5,1087.5C 989.833,1087.5 989.167,1087.5 988.5,1087.5C 988.167,1086.17 987.833,1086.17 987.5,1087.5C 986.833,1087.5 986.167,1087.5 985.5,1087.5C 985.167,1086.17 984.833,1086.17 984.5,1087.5C 983.833,1087.5 983.167,1087.5 982.5,1087.5C 981.833,1086.17 981.167,1086.17 980.5,1087.5C 980.167,1087.5 979.833,1087.5 979.5,1087.5C 978.167,1086.17 976.833,1086.17 975.5,1087.5C 973.5,1087.5 971.5,1087.5 969.5,1087.5C 968.833,1086.17 968.167,1086.17 967.5,1087.5C 967.167,1087.5 966.833,1087.5 966.5,1087.5C 966.167,1086.17 965.833,1086.17 965.5,1087.5C 965.167,1087.5 964.833,1087.5 964.5,1087.5C 963.5,1086.17 962.5,1086.17 961.5,1087.5C 961.167,1087.5 960.833,1087.5 960.5,1087.5C 960.167,1086.17 959.833,1086.17 959.5,1087.5C 958.833,1087.5 958.167,1087.5 957.5,1087.5C 957.167,1086.17 956.833,1086.17 956.5,1087.5C 956.167,1087.5 955.833,1087.5 955.5,1087.5C 955.167,1086.17 954.833,1086.17 954.5,1087.5C 953.167,1087.5 951.833,1087.5 950.5,1087.5C 950.167,1086.17 949.833,1086.17 949.5,1087.5C 948.833,1087.5 948.167,1087.5 947.5,1087.5C 947.167,1086.17 946.833,1086.17 946.5,1087.5C 945.5,1087.5 944.5,1087.5 943.5,1087.5C 942.833,1086.17 942.167,1086.17 941.5,1087.5C 940.5,1087.5 939.5,1087.5 938.5,1087.5C 937.5,1086.17 936.5,1086.17 935.5,1087.5C 934.833,1087.5 934.167,1087.5 933.5,1087.5C 933.167,1086.17 932.833,1086.17 932.5,1087.5C 931.833,1087.5 931.167,1087.5 930.5,1087.5C 930.167,1086.17 929.833,1086.17 929.5,1087.5C 928.167,1087.5 926.833,1087.5 925.5,1087.5C 925.167,1086.17 924.833,1086.17 924.5,1087.5C 924.167,1087.5 923.833,1087.5 923.5,1087.5C 923.167,1086.17 922.833,1086.17 922.5,1087.5C 922.167,1087.5 921.833,1087.5 921.5,1087.5C 920.167,1086.17 918.833,1086.17 917.5,1087.5C 917.167,1087.5 916.833,1087.5 916.5,1087.5C 916.167,1086.17 915.833,1086.17 915.5,1087.5C 913.167,1087.5 910.833,1087.5 908.5,1087.5C 908.167,1086.17 907.833,1086.17 907.5,1087.5C 905.833,1087.5 904.167,1087.5 902.5,1087.5C 902.167,1086.17 901.833,1086.17 901.5,1087.5C 900.833,1087.5 900.167,1087.5 899.5,1087.5C 896.5,1086.17 893.5,1086.17 890.5,1087.5C 889.833,1087.5 889.167,1087.5 888.5,1087.5C 888.167,1086.17 887.833,1086.17 887.5,1087.5C 886.167,1087.5 884.833,1087.5 883.5,1087.5C 883.167,1086.17 882.833,1086.17 882.5,1087.5C 881.833,1087.5 881.167,1087.5 880.5,1087.5C 880.167,1086.17 879.833,1086.17 879.5,1087.5C 878.833,1087.5 878.167,1087.5 877.5,1087.5C 877.167,1086.17 876.833,1086.17 876.5,1087.5C 876.167,1087.5 875.833,1087.5 875.5,1087.5C 875.167,1086.17 874.833,1086.17 874.5,1087.5C 874.167,1087.5 873.833,1087.5 873.5,1087.5C 872.5,1086.17 871.5,1086.17 870.5,1087.5C 870.167,1087.5 869.833,1087.5 869.5,1087.5C 869.167,1086.17 868.833,1086.17 868.5,1087.5C 868.167,1087.5 867.833,1087.5 867.5,1087.5C 866.5,1086.17 865.5,1086.17 864.5,1087.5C 864.167,1087.5 863.833,1087.5 863.5,1087.5C 863.167,1086.17 862.833,1086.17 862.5,1087.5C 861.833,1087.5 861.167,1087.5 860.5,1087.5C 860.167,1086.17 859.833,1086.17 859.5,1087.5C 856.833,1087.5 854.167,1087.5 851.5,1087.5C 850.833,1086.17 850.167,1086.17 849.5,1087.5C 849.167,1087.5 848.833,1087.5 848.5,1087.5C 848.167,1086.17 847.833,1086.17 847.5,1087.5C 845.833,1087.5 844.167,1087.5 842.5,1087.5C 842.167,1086.17 841.833,1086.17 841.5,1087.5C 840.833,1087.5 840.167,1087.5 839.5,1087.5C 839.167,1086.17 838.833,1086.17 838.5,1087.5C 837.833,1087.5 837.167,1087.5 836.5,1087.5C 836.167,1086.17 835.833,1086.17 835.5,1087.5C 834.5,1087.5 833.5,1087.5 832.5,1087.5C 832.167,1086.17 831.833,1086.17 831.5,1087.5C 830.833,1087.5 830.167,1087.5 829.5,1087.5C 829.167,1086.17 828.833,1086.17 828.5,1087.5C 825.167,1087.5 821.833,1087.5 818.5,1087.5C 818.167,1086.17 817.833,1086.17 817.5,1087.5C 812.833,1087.5 808.167,1087.5 803.5,1087.5C 803.167,1086.17 802.833,1086.17 802.5,1087.5C 802.167,1087.5 801.833,1087.5 801.5,1087.5C 801.167,1086.17 800.833,1086.17 800.5,1087.5C 799.5,1087.5 798.5,1087.5 797.5,1087.5C 796.833,1086.17 796.167,1086.17 795.5,1087.5C 795.167,1087.5 794.833,1087.5 794.5,1087.5C 793.833,1086.17 793.167,1086.17 792.5,1087.5C 791.167,1087.5 789.833,1087.5 788.5,1087.5C 788.167,1086.17 787.833,1086.17 787.5,1087.5C 786.833,1087.5 786.167,1087.5 785.5,1087.5C 785.167,1086.17 784.833,1086.17 784.5,1087.5C 782.167,1087.5 779.833,1087.5 777.5,1087.5C 777.167,1086.17 776.833,1086.17 776.5,1087.5C 775.833,1087.5 775.167,1087.5 774.5,1087.5C 774.167,1086.17 773.833,1086.17 773.5,1087.5C 772.833,1087.5 772.167,1087.5 771.5,1087.5C 770.833,1086.17 770.167,1086.17 769.5,1087.5C 769.167,1087.5 768.833,1087.5 768.5,1087.5C 767.5,1086.17 766.5,1086.17 765.5,1087.5C 764.5,1087.5 763.5,1087.5 762.5,1087.5C 762.167,1086.17 761.833,1086.17 761.5,1087.5C 761.167,1087.5 760.833,1087.5 760.5,1087.5C 760.167,1086.17 759.833,1086.17 759.5,1087.5C 758.833,1087.5 758.167,1087.5 757.5,1087.5C 756.167,1086.17 754.833,1086.17 753.5,1087.5C 753.167,1087.5 752.833,1087.5 752.5,1087.5C 751.833,1086.17 751.167,1086.17 750.5,1087.5C 749.5,1087.5 748.5,1087.5 747.5,1087.5C 747.167,1086.17 746.833,1086.17 746.5,1087.5C 746.167,1087.5 745.833,1087.5 745.5,1087.5C 745.167,1086.17 744.833,1086.17 744.5,1087.5C 743.5,1087.5 742.5,1087.5 741.5,1087.5C 740.833,1086.17 740.167,1086.17 739.5,1087.5C 738.167,1087.5 736.833,1087.5 735.5,1087.5C 735.167,1086.17 734.833,1086.17 734.5,1087.5C 733.833,1087.5 733.167,1087.5 732.5,1087.5C 732.167,1086.17 731.833,1086.17 731.5,1087.5C 730.833,1087.5 730.167,1087.5 729.5,1087.5C 729.167,1086.17 728.833,1086.17 728.5,1087.5C 727.833,1087.5 727.167,1087.5 726.5,1087.5C 725.833,1086.17 725.167,1086.17 724.5,1087.5C 724.167,1087.5 723.833,1087.5 723.5,1087.5C 722.167,1086.17 720.833,1086.17 719.5,1087.5C 717.5,1087.5 715.5,1087.5 713.5,1087.5C 712.833,1086.17 712.167,1086.17 711.5,1087.5C 711.167,1087.5 710.833,1087.5 710.5,1087.5C 710.167,1086.17 709.833,1086.17 709.5,1087.5C 709.167,1087.5 708.833,1087.5 708.5,1087.5C 707.5,1086.17 706.5,1086.17 705.5,1087.5C 705.167,1087.5 704.833,1087.5 704.5,1087.5C 704.167,1086.17 703.833,1086.17 703.5,1087.5C 702.833,1087.5 702.167,1087.5 701.5,1087.5C 701.167,1086.17 700.833,1086.17 700.5,1087.5C 700.167,1087.5 699.833,1087.5 699.5,1087.5C 699.167,1086.17 698.833,1086.17 698.5,1087.5C 697.167,1087.5 695.833,1087.5 694.5,1087.5C 694.167,1086.17 693.833,1086.17 693.5,1087.5C 692.833,1087.5 692.167,1087.5 691.5,1087.5C 691.167,1086.17 690.833,1086.17 690.5,1087.5C 689.5,1087.5 688.5,1087.5 687.5,1087.5C 686.833,1086.17 686.167,1086.17 685.5,1087.5C 684.5,1087.5 683.5,1087.5 682.5,1087.5C 681.5,1086.17 680.5,1086.17 679.5,1087.5C 678.833,1087.5 678.167,1087.5 677.5,1087.5C 677.167,1086.17 676.833,1086.17 676.5,1087.5C 675.833,1087.5 675.167,1087.5 674.5,1087.5C 674.167,1086.17 673.833,1086.17 673.5,1087.5C 672.167,1087.5 670.833,1087.5 669.5,1087.5C 669.167,1086.17 668.833,1086.17 668.5,1087.5C 668.167,1087.5 667.833,1087.5 667.5,1087.5C 667.167,1086.17 666.833,1086.17 666.5,1087.5C 666.167,1087.5 665.833,1087.5 665.5,1087.5C 664.167,1086.17 662.833,1086.17 661.5,1087.5C 661.167,1087.5 660.833,1087.5 660.5,1087.5C 660.167,1086.17 659.833,1086.17 659.5,1087.5C 657.167,1087.5 654.833,1087.5 652.5,1087.5C 652.167,1086.17 651.833,1086.17 651.5,1087.5C 649.833,1087.5 648.167,1087.5 646.5,1087.5C 646.167,1086.17 645.833,1086.17 645.5,1087.5C 644.833,1087.5 644.167,1087.5 643.5,1087.5C 640.5,1086.17 637.5,1086.17 634.5,1087.5C 633.833,1087.5 633.167,1087.5 632.5,1087.5C 632.167,1086.17 631.833,1086.17 631.5,1087.5C 630.167,1087.5 628.833,1087.5 627.5,1087.5C 627.167,1086.17 626.833,1086.17 626.5,1087.5C 625.833,1087.5 625.167,1087.5 624.5,1087.5C 624.167,1086.17 623.833,1086.17 623.5,1087.5C 622.833,1087.5 622.167,1087.5 621.5,1087.5C 621.167,1086.17 620.833,1086.17 620.5,1087.5C 620.167,1087.5 619.833,1087.5 619.5,1087.5C 619.167,1086.17 618.833,1086.17 618.5,1087.5C 618.167,1087.5 617.833,1087.5 617.5,1087.5C 616.5,1086.17 615.5,1086.17 614.5,1087.5C 614.167,1087.5 613.833,1087.5 613.5,1087.5C 613.167,1086.17 612.833,1086.17 612.5,1087.5C 612.167,1087.5 611.833,1087.5 611.5,1087.5C 610.5,1086.17 609.5,1086.17 608.5,1087.5C 608.167,1087.5 607.833,1087.5 607.5,1087.5C 607.167,1086.17 606.833,1086.17 606.5,1087.5C 605.833,1087.5 605.167,1087.5 604.5,1087.5C 604.167,1086.17 603.833,1086.17 603.5,1087.5C 600.833,1087.5 598.167,1087.5 595.5,1087.5C 594.833,1086.17 594.167,1086.17 593.5,1087.5C 593.167,1087.5 592.833,1087.5 592.5,1087.5C 592.167,1086.17 591.833,1086.17 591.5,1087.5C 589.833,1087.5 588.167,1087.5 586.5,1087.5C 586.167,1086.17 585.833,1086.17 585.5,1087.5C 584.833,1087.5 584.167,1087.5 583.5,1087.5C 583.167,1086.17 582.833,1086.17 582.5,1087.5C 581.833,1087.5 581.167,1087.5 580.5,1087.5C 580.167,1086.17 579.833,1086.17 579.5,1087.5C 578.5,1087.5 577.5,1087.5 576.5,1087.5C 576.167,1086.17 575.833,1086.17 575.5,1087.5C 574.833,1087.5 574.167,1087.5 573.5,1087.5C 573.167,1086.17 572.833,1086.17 572.5,1087.5C 569.167,1087.5 565.833,1087.5 562.5,1087.5C 562.167,1086.17 561.833,1086.17 561.5,1087.5C 556.833,1087.5 552.167,1087.5 547.5,1087.5C 547.167,1086.17 546.833,1086.17 546.5,1087.5C 546.167,1087.5 545.833,1087.5 545.5,1087.5C 545.167,1086.17 544.833,1086.17 544.5,1087.5C 543.5,1087.5 542.5,1087.5 541.5,1087.5C 540.833,1086.17 540.167,1086.17 539.5,1087.5C 539.167,1087.5 538.833,1087.5 538.5,1087.5C 537.833,1086.17 537.167,1086.17 536.5,1087.5C 535.167,1087.5 533.833,1087.5 532.5,1087.5C 532.167,1086.17 531.833,1086.17 531.5,1087.5C 530.833,1087.5 530.167,1087.5 529.5,1087.5C 529.167,1086.17 528.833,1086.17 528.5,1087.5C 526.167,1087.5 523.833,1087.5 521.5,1087.5C 521.167,1086.17 520.833,1086.17 520.5,1087.5C 519.833,1087.5 519.167,1087.5 518.5,1087.5C 518.167,1086.17 517.833,1086.17 517.5,1087.5C 516.833,1087.5 516.167,1087.5 515.5,1087.5C 514.833,1086.17 514.167,1086.17 513.5,1087.5C 513.167,1087.5 512.833,1087.5 512.5,1087.5C 511.5,1086.17 510.5,1086.17 509.5,1087.5C 508.5,1087.5 507.5,1087.5 506.5,1087.5C 506.167,1086.17 505.833,1086.17 505.5,1087.5C 505.167,1087.5 504.833,1087.5 504.5,1087.5C 504.167,1086.17 503.833,1086.17 503.5,1087.5C 502.833,1087.5 502.167,1087.5 501.5,1087.5C 500.167,1086.17 498.833,1086.17 497.5,1087.5C 497.167,1087.5 496.833,1087.5 496.5,1087.5C 495.833,1086.17 495.167,1086.17 494.5,1087.5C 493.5,1087.5 492.5,1087.5 491.5,1087.5C 491.167,1086.17 490.833,1086.17 490.5,1087.5C 490.167,1087.5 489.833,1087.5 489.5,1087.5C 489.167,1086.17 488.833,1086.17 488.5,1087.5C 487.5,1087.5 486.5,1087.5 485.5,1087.5C 484.833,1086.17 484.167,1086.17 483.5,1087.5C 482.167,1087.5 480.833,1087.5 479.5,1087.5C 479.167,1086.17 478.833,1086.17 478.5,1087.5C 477.833,1087.5 477.167,1087.5 476.5,1087.5C 476.167,1086.17 475.833,1086.17 475.5,1087.5C 474.833,1087.5 474.167,1087.5 473.5,1087.5C 473.167,1086.17 472.833,1086.17 472.5,1087.5C 471.833,1087.5 471.167,1087.5 470.5,1087.5C 469.833,1086.17 469.167,1086.17 468.5,1087.5C 468.167,1087.5 467.833,1087.5 467.5,1087.5C 466.167,1086.17 464.833,1086.17 463.5,1087.5C 461.5,1087.5 459.5,1087.5 457.5,1087.5C 456.833,1086.17 456.167,1086.17 455.5,1087.5C 455.167,1087.5 454.833,1087.5 454.5,1087.5C 454.167,1086.17 453.833,1086.17 453.5,1087.5C 453.167,1087.5 452.833,1087.5 452.5,1087.5C 451.5,1086.17 450.5,1086.17 449.5,1087.5C 449.167,1087.5 448.833,1087.5 448.5,1087.5C 448.167,1086.17 447.833,1086.17 447.5,1087.5C 446.833,1087.5 446.167,1087.5 445.5,1087.5C 445.167,1086.17 444.833,1086.17 444.5,1087.5C 444.167,1087.5 443.833,1087.5 443.5,1087.5C 443.167,1086.17 442.833,1086.17 442.5,1087.5C 441.167,1087.5 439.833,1087.5 438.5,1087.5C 438.167,1086.17 437.833,1086.17 437.5,1087.5C 436.833,1087.5 436.167,1087.5 435.5,1087.5C 435.167,1086.17 434.833,1086.17 434.5,1087.5C 433.5,1087.5 432.5,1087.5 431.5,1087.5C 430.833,1086.17 430.167,1086.17 429.5,1087.5C 428.5,1087.5 427.5,1087.5 426.5,1087.5C 425.5,1086.17 424.5,1086.17 423.5,1087.5C 422.833,1087.5 422.167,1087.5 421.5,1087.5C 421.167,1086.17 420.833,1086.17 420.5,1087.5C 419.833,1087.5 419.167,1087.5 418.5,1087.5C 418.167,1086.17 417.833,1086.17 417.5,1087.5C 416.167,1087.5 414.833,1087.5 413.5,1087.5C 413.167,1086.17 412.833,1086.17 412.5,1087.5C 412.167,1087.5 411.833,1087.5 411.5,1087.5C 411.167,1086.17 410.833,1086.17 410.5,1087.5C 410.167,1087.5 409.833,1087.5 409.5,1087.5C 408.167,1086.17 406.833,1086.17 405.5,1087.5C 405.167,1087.5 404.833,1087.5 404.5,1087.5C 404.167,1086.17 403.833,1086.17 403.5,1087.5C 401.167,1087.5 398.833,1087.5 396.5,1087.5C 396.167,1086.17 395.833,1086.17 395.5,1087.5C 393.833,1087.5 392.167,1087.5 390.5,1087.5C 390.167,1086.17 389.833,1086.17 389.5,1087.5C 388.833,1087.5 388.167,1087.5 387.5,1087.5C 384.5,1086.17 381.5,1086.17 378.5,1087.5C 377.833,1087.5 377.167,1087.5 376.5,1087.5C 376.167,1086.17 375.833,1086.17 375.5,1087.5C 374.167,1087.5 372.833,1087.5 371.5,1087.5C 371.167,1086.17 370.833,1086.17 370.5,1087.5C 369.833,1087.5 369.167,1087.5 368.5,1087.5C 368.167,1086.17 367.833,1086.17 367.5,1087.5C 366.833,1087.5 366.167,1087.5 365.5,1087.5C 365.167,1086.17 364.833,1086.17 364.5,1087.5C 364.167,1087.5 363.833,1087.5 363.5,1087.5C 363.167,1086.17 362.833,1086.17 362.5,1087.5C 362.167,1087.5 361.833,1087.5 361.5,1087.5C 360.5,1086.17 359.5,1086.17 358.5,1087.5C 358.167,1087.5 357.833,1087.5 357.5,1087.5C 357.167,1086.17 356.833,1086.17 356.5,1087.5C 356.167,1087.5 355.833,1087.5 355.5,1087.5C 354.5,1086.17 353.5,1086.17 352.5,1087.5C 352.167,1087.5 351.833,1087.5 351.5,1087.5C 351.167,1086.17 350.833,1086.17 350.5,1087.5C 349.833,1087.5 349.167,1087.5 348.5,1087.5C 348.167,1086.17 347.833,1086.17 347.5,1087.5C 344.833,1087.5 342.167,1087.5 339.5,1087.5C 338.833,1086.17 338.167,1086.17 337.5,1087.5C 337.167,1087.5 336.833,1087.5 336.5,1087.5C 336.167,1086.17 335.833,1086.17 335.5,1087.5C 333.833,1087.5 332.167,1087.5 330.5,1087.5C 330.167,1086.17 329.833,1086.17 329.5,1087.5C 328.833,1087.5 328.167,1087.5 327.5,1087.5C 327.167,1086.17 326.833,1086.17 326.5,1087.5C 325.833,1087.5 325.167,1087.5 324.5,1087.5C 324.167,1086.17 323.833,1086.17 323.5,1087.5C 322.5,1087.5 321.5,1087.5 320.5,1087.5C 320.167,1086.17 319.833,1086.17 319.5,1087.5C 318.833,1087.5 318.167,1087.5 317.5,1087.5C 317.167,1086.17 316.833,1086.17 316.5,1087.5C 313.167,1087.5 309.833,1087.5 306.5,1087.5C 306.167,1086.17 305.833,1086.17 305.5,1087.5C 300.833,1087.5 296.167,1087.5 291.5,1087.5C 291.167,1086.17 290.833,1086.17 290.5,1087.5C 290.167,1087.5 289.833,1087.5 289.5,1087.5C 289.167,1086.17 288.833,1086.17 288.5,1087.5C 287.5,1087.5 286.5,1087.5 285.5,1087.5C 284.833,1086.17 284.167,1086.17 283.5,1087.5C 283.167,1087.5 282.833,1087.5 282.5,1087.5C 281.833,1086.17 281.167,1086.17 280.5,1087.5C 279.167,1087.5 277.833,1087.5 276.5,1087.5C 276.167,1086.17 275.833,1086.17 275.5,1087.5C 274.833,1087.5 274.167,1087.5 273.5,1087.5C 273.167,1086.17 272.833,1086.17 272.5,1087.5C 270.167,1087.5 267.833,1087.5 265.5,1087.5C 265.167,1086.17 264.833,1086.17 264.5,1087.5C 263.833,1087.5 263.167,1087.5 262.5,1087.5C 262.167,1086.17 261.833,1086.17 261.5,1087.5C 260.833,1087.5 260.167,1087.5 259.5,1087.5C 258.833,1086.17 258.167,1086.17 257.5,1087.5C 257.167,1087.5 256.833,1087.5 256.5,1087.5C 255.5,1086.17 254.5,1086.17 253.5,1087.5C 252.5,1087.5 251.5,1087.5 250.5,1087.5C 250.167,1086.17 249.833,1086.17 249.5,1087.5C 249.167,1087.5 248.833,1087.5 248.5,1087.5C 248.167,1086.17 247.833,1086.17 247.5,1087.5C 246.833,1087.5 246.167,1087.5 245.5,1087.5C 244.167,1086.17 242.833,1086.17 241.5,1087.5C 241.167,1087.5 240.833,1087.5 240.5,1087.5C 239.833,1086.17 239.167,1086.17 238.5,1087.5C 237.5,1087.5 236.5,1087.5 235.5,1087.5C 235.167,1086.17 234.833,1086.17 234.5,1087.5C 234.167,1087.5 233.833,1087.5 233.5,1087.5C 233.167,1086.17 232.833,1086.17 232.5,1087.5C 231.5,1087.5 230.5,1087.5 229.5,1087.5C 228.833,1086.17 228.167,1086.17 227.5,1087.5C 226.167,1087.5 224.833,1087.5 223.5,1087.5C 223.167,1086.17 222.833,1086.17 222.5,1087.5C 221.833,1087.5 221.167,1087.5 220.5,1087.5C 220.167,1086.17 219.833,1086.17 219.5,1087.5C 218.833,1087.5 218.167,1087.5 217.5,1087.5C 217.167,1086.17 216.833,1086.17 216.5,1087.5C 215.833,1087.5 215.167,1087.5 214.5,1087.5C 213.833,1086.17 213.167,1086.17 212.5,1087.5C 212.167,1087.5 211.833,1087.5 211.5,1087.5C 210.167,1086.17 208.833,1086.17 207.5,1087.5C 205.5,1087.5 203.5,1087.5 201.5,1087.5C 200.833,1086.17 200.167,1086.17 199.5,1087.5C 199.167,1087.5 198.833,1087.5 198.5,1087.5C 198.167,1086.17 197.833,1086.17 197.5,1087.5C 197.167,1087.5 196.833,1087.5 196.5,1087.5C 195.5,1086.17 194.5,1086.17 193.5,1087.5C 193.167,1087.5 192.833,1087.5 192.5,1087.5C 192.167,1086.17 191.833,1086.17 191.5,1087.5C 190.833,1087.5 190.167,1087.5 189.5,1087.5C 189.167,1086.17 188.833,1086.17 188.5,1087.5C 188.167,1087.5 187.833,1087.5 187.5,1087.5C 187.167,1086.17 186.833,1086.17 186.5,1087.5C 185.167,1087.5 183.833,1087.5 182.5,1087.5C 182.167,1086.17 181.833,1086.17 181.5,1087.5C 180.833,1087.5 180.167,1087.5 179.5,1087.5C 179.167,1086.17 178.833,1086.17 178.5,1087.5C 177.5,1087.5 176.5,1087.5 175.5,1087.5C 174.833,1086.17 174.167,1086.17 173.5,1087.5C 172.5,1087.5 171.5,1087.5 170.5,1087.5C 169.5,1086.17 168.5,1086.17 167.5,1087.5C 166.833,1087.5 166.167,1087.5 165.5,1087.5C 165.167,1086.17 164.833,1086.17 164.5,1087.5C 163.833,1087.5 163.167,1087.5 162.5,1087.5C 162.167,1086.17 161.833,1086.17 161.5,1087.5C 160.167,1087.5 158.833,1087.5 157.5,1087.5C 157.167,1086.17 156.833,1086.17 156.5,1087.5C 156.167,1087.5 155.833,1087.5 155.5,1087.5C 155.167,1086.17 154.833,1086.17 154.5,1087.5C 154.167,1087.5 153.833,1087.5 153.5,1087.5C 152.167,1086.17 150.833,1086.17 149.5,1087.5C 149.167,1087.5 148.833,1087.5 148.5,1087.5C 148.167,1086.17 147.833,1086.17 147.5,1087.5C 145.167,1087.5 142.833,1087.5 140.5,1087.5C 140.167,1086.17 139.833,1086.17 139.5,1087.5C 137.833,1087.5 136.167,1087.5 134.5,1087.5C 134.167,1086.17 133.833,1086.17 133.5,1087.5C 132.833,1087.5 132.167,1087.5 131.5,1087.5C 128.5,1086.17 125.5,1086.17 122.5,1087.5C 121.833,1087.5 121.167,1087.5 120.5,1087.5C 120.167,1086.17 119.833,1086.17 119.5,1087.5C 118.167,1087.5 116.833,1087.5 115.5,1087.5C 115.167,1086.17 114.833,1086.17 114.5,1087.5C 113.833,1087.5 113.167,1087.5 112.5,1087.5C 112.167,1086.17 111.833,1086.17 111.5,1087.5C 110.833,1087.5 110.167,1087.5 109.5,1087.5C 109.167,1086.17 108.833,1086.17 108.5,1087.5C 108.167,1087.5 107.833,1087.5 107.5,1087.5C 107.167,1086.17 106.833,1086.17 106.5,1087.5C 106.167,1087.5 105.833,1087.5 105.5,1087.5C 104.5,1086.17 103.5,1086.17 102.5,1087.5C 102.167,1087.5 101.833,1087.5 101.5,1087.5C 101.167,1086.17 100.833,1086.17 100.5,1087.5C 100.167,1087.5 99.8333,1087.5 99.5,1087.5C 98.5,1086.17 97.5,1086.17 96.5,1087.5C 96.1667,1087.5 95.8333,1087.5 95.5,1087.5C 95.1667,1086.17 94.8333,1086.17 94.5,1087.5C 93.8333,1087.5 93.1667,1087.5 92.5,1087.5C 92.1667,1086.17 91.8333,1086.17 91.5,1087.5C 88.8333,1087.5 86.1667,1087.5 83.5,1087.5C 82.8333,1086.17 82.1667,1086.17 81.5,1087.5C 81.1667,1087.5 80.8333,1087.5 80.5,1087.5C 80.1667,1086.17 79.8333,1086.17 79.5,1087.5C 77.8333,1087.5 76.1667,1087.5 74.5,1087.5C 74.1667,1086.17 73.8333,1086.17 73.5,1087.5C 72.8333,1087.5 72.1667,1087.5 71.5,1087.5C 71.1667,1086.17 70.8333,1086.17 70.5,1087.5C 69.8333,1087.5 69.1667,1087.5 68.5,1087.5C 68.1667,1086.17 67.8333,1086.17 67.5,1087.5C 66.5,1087.5 65.5,1087.5 64.5,1087.5C 64.1667,1086.17 63.8333,1086.17 63.5,1087.5C 62.8333,1087.5 62.1667,1087.5 61.5,1087.5C 61.1667,1086.17 60.8333,1086.17 60.5,1087.5C 57.1667,1087.5 53.8333,1087.5 50.5,1087.5C 50.1667,1086.17 49.8333,1086.17 49.5,1087.5C 44.8333,1087.5 40.1667,1087.5 35.5,1087.5C 35.1667,1086.17 34.8333,1086.17 34.5,1087.5C 34.1667,1087.5 33.8333,1087.5 33.5,1087.5C 33.1667,1086.17 32.8333,1086.17 32.5,1087.5C 31.5,1087.5 30.5,1087.5 29.5,1087.5C 28.8333,1086.17 28.1667,1086.17 27.5,1087.5C 27.1667,1087.5 26.8333,1087.5 26.5,1087.5C 25.8333,1086.17 25.1667,1086.17 24.5,1087.5C 23.1667,1087.5 21.8333,1087.5 20.5,1087.5C 20.1667,1086.17 19.8333,1086.17 19.5,1087.5C 18.8333,1087.5 18.1667,1087.5 17.5,1087.5C 17.1667,1086.17 16.8333,1086.17 16.5,1087.5C 14.1667,1087.5 11.8333,1087.5 9.5,1087.5C 9.16667,1086.17 8.83333,1086.17 8.5,1087.5C 7.83333,1087.5 7.16667,1087.5 6.5,1087.5C 5.08134,1086.55 3.41467,1086.22 1.5,1086.5C 1.5,1085.17 0.833333,1084.5 -0.5,1084.5C -0.5,1081.83 -0.5,1079.17 -0.5,1076.5C 0.833333,1076.17 0.833333,1075.83 -0.5,1075.5C -0.5,1075.17 -0.5,1074.83 -0.5,1074.5C 0.833333,1074.17 0.833333,1073.83 -0.5,1073.5C -0.5,1069.5 -0.5,1065.5 -0.5,1061.5C 0.833333,1061.17 0.833333,1060.83 -0.5,1060.5C -0.5,1059.5 -0.5,1058.5 -0.5,1057.5C 0.833333,1057.17 0.833333,1056.83 -0.5,1056.5C -0.5,1055.83 -0.5,1055.17 -0.5,1054.5C 0.833333,1054.17 0.833333,1053.83 -0.5,1053.5C -0.5,1052.5 -0.5,1051.5 -0.5,1050.5 Z"/></g>
<g><path style="opacity:0.004" fill="#fefffe" d="M 1.5,1086.5 C 1.5,1086.83 1.5,1087.17 1.5,1087.5C 0.829857,1087.02 0.829857,1086.69 1.5,1086.5 Z"/></g>
</svg>
