<svg version="1.1" id="Layer_1" xmlns="http://www.w3.org/2000/svg" xmlns:xlink="http://www.w3.org/1999/xlink" x="0px" y="0px"
	 width="100%" viewBox="0 0 254 177" enable-background="new 0 0 254 177" xml:space="preserve">
<path fill="#3D3E43" opacity="1.000000" stroke="none" 
	d="
M17.000000,1.000000 
	C73.354225,1.000000 129.708450,1.000000 186.738754,1.280446 
	C197.378754,5.367368 202.130005,11.672430 202.142731,21.766464 
	C202.199814,67.038605 202.164215,112.310860 202.166092,157.583069 
	C202.166428,166.066956 198.240021,172.134613 190.859116,176.120544 
	C189.859314,176.660461 188.950790,177.369339 188.000000,178.000000 
	C125.745102,178.000000 63.490204,178.000000 1.000000,178.000000 
	C1.000000,124.646004 1.000000,71.291656 1.000500,17.093102 
	C4.007195,8.724663 9.048003,3.335135 17.000000,1.000000 
M130.114243,55.669373 
	C129.911545,59.034718 128.241409,60.639408 124.755501,60.583111 
	C122.000275,60.538616 119.238480,60.901604 116.548843,61.079063 
	C116.548843,65.993111 116.548843,70.391373 116.548843,75.248451 
	C120.474609,75.248451 124.058029,75.248451 127.864120,75.248451 
	C127.864120,77.526039 127.859581,79.339973 127.864838,81.153877 
	C127.909729,96.637459 127.714386,112.126595 128.069473,127.603088 
	C128.436539,143.601913 137.215561,155.025650 151.539474,156.448303 
	C159.953323,157.283981 168.660446,155.386551 177.202652,154.425217 
	C178.239441,154.308533 179.782181,152.415833 179.869400,151.254532 
	C180.190201,146.982559 179.996704,142.671982 179.996704,138.212601 
	C177.636993,138.697128 175.698883,139.126648 173.748505,139.490509 
	C160.038574,142.048264 155.049591,137.987732 155.008331,124.153900 
	C154.968094,110.667137 154.999557,97.180176 154.999542,83.693298 
	C154.999527,80.930542 154.999542,78.167778 154.999542,74.978363 
	C163.908035,74.978363 172.151947,74.978363 180.495178,74.978363 
	C180.495178,69.792725 180.495178,65.064774 180.495178,59.954147 
	C171.939972,59.954147 163.683456,59.954147 154.938538,59.954147 
	C154.938538,49.010960 154.938538,38.441345 154.938538,27.596397 
	C150.301910,27.596397 146.147980,27.762224 142.014801,27.540756 
	C139.033188,27.380989 137.598892,28.270624 136.839279,31.361444 
	C134.898224,39.259567 132.531815,47.053158 130.114243,55.669373 
M49.802807,95.500092 
	C49.802807,83.071892 49.802807,70.643684 49.802807,58.310135 
	C40.329014,58.310135 31.562080,58.310135 22.946606,58.310135 
	C22.946606,91.025276 22.946606,123.427353 22.946606,155.774536 
	C32.031693,155.774536 40.757816,155.774536 49.802803,155.774536 
	C49.802803,135.774643 49.802803,116.137367 49.802807,95.500092 
M101.408089,63.547009 
	C101.328934,61.791378 101.249786,60.035744 101.172684,58.325546 
	C91.998741,58.325546 83.263100,58.325546 74.536758,58.325546 
	C74.536758,91.054749 74.536758,123.455360 74.536758,155.810318 
	C83.638908,155.810318 92.397774,155.810318 101.408142,155.810318 
	C101.408142,125.166702 101.408142,94.850876 101.408089,63.547009 
M48.982304,29.764162 
	C45.617683,24.045980 40.646233,21.170010 34.037434,22.184565 
	C28.140482,23.089840 23.995165,26.671244 22.470177,32.478024 
	C20.927788,38.351051 22.284588,43.667892 27.135023,47.736603 
	C31.967022,51.789864 39.149040,52.138573 44.265312,48.600876 
	C50.023567,44.619270 51.711647,38.493004 48.982304,29.764162 
M100.019287,44.255074 
	C103.141808,38.257599 103.133217,32.399136 98.704132,27.084620 
	C94.987610,22.625114 90.017975,21.089407 84.367508,22.412550 
	C78.314232,23.830015 74.003548,29.096733 73.602539,35.196411 
	C73.163040,41.881577 76.534203,47.560432 82.371056,49.967304 
	C88.479904,52.486332 94.413033,50.741966 100.019287,44.255074 
z"/>
<path fill="#0372AF" opacity="1.000000" stroke="none" 
	d="
M188.468658,178.000000 
	C188.950790,177.369339 189.859314,176.660461 190.859116,176.120544 
	C198.240021,172.134613 202.166428,166.066956 202.166092,157.583069 
	C202.164215,112.310860 202.199814,67.038605 202.142731,21.766464 
	C202.130005,11.672430 197.378754,5.367368 187.207413,1.280446 
	C204.020889,1.000000 221.041794,1.000000 238.764618,1.260497 
	C247.405807,4.228284 252.933990,9.092356 254.041489,18.342785 
	C253.998215,63.798298 253.989761,108.778976 254.049805,153.759567 
	C254.052582,155.840134 254.669235,157.919876 255.000000,160.000000 
	C255.000000,160.750000 255.000000,161.500000 254.659836,162.713608 
	C251.551178,170.534576 246.431290,175.461746 239.000000,178.000000 
	C222.312439,178.000000 205.624878,178.000000 188.468658,178.000000 
M218.959183,88.893692 
	C217.760422,88.547798 216.561661,88.201904 215.138779,87.791336 
	C215.138779,89.656517 215.138779,91.109909 215.138779,92.765938 
	C220.765930,94.587181 226.319244,96.384521 232.955887,98.532486 
	C227.457413,100.483932 223.160385,102.284142 218.704422,103.503746 
	C215.109909,104.487556 214.161819,106.279922 214.851578,108.068733 
	C221.116959,109.553558 226.392624,110.803833 231.668274,112.054100 
	C231.607010,112.555481 231.545746,113.056854 231.484467,113.558235 
	C227.433075,114.923386 223.454651,116.603897 219.309341,117.563210 
	C215.323761,118.485573 213.954056,120.327141 215.558258,124.510742 
	C223.370026,121.731194 231.199142,119.012611 238.955215,116.099617 
	C239.910629,115.740799 241.176682,114.237526 241.057190,113.453957 
	C240.881378,112.301079 239.805023,110.834641 238.730682,110.353104 
	C235.324783,108.826530 231.741913,107.694809 226.926498,105.934982 
	C231.476196,104.272865 234.765747,103.298492 237.829880,101.847961 
	C239.194916,101.201782 240.106110,99.596863 241.223282,98.427078 
	C240.023132,97.333298 239.003250,95.759438 237.591446,95.229370 
	C231.682968,93.011017 225.656952,91.105736 218.959183,88.893692 
M226.115997,147.743835 
	C227.894012,146.511642 229.631973,145.216125 231.458542,144.060699 
	C235.050232,141.788712 234.555756,139.834976 231.178940,137.859131 
	C229.118668,136.653610 227.170380,135.256775 225.171783,133.945877 
	C225.274139,133.640823 225.376495,133.335754 225.478851,133.030701 
	C230.536743,133.030701 235.594620,133.030701 240.783447,133.030701 
	C240.783447,131.160889 240.783447,129.766220 240.783447,128.184952 
	C232.112442,128.184952 223.679031,128.184952 215.044479,128.184952 
	C214.130646,136.989212 223.961426,135.955765 226.454025,140.967575 
	C223.553787,146.172729 214.230225,145.704681 215.115234,154.278442 
	C223.931961,154.278442 232.334976,154.278442 241.053238,154.278442 
	C240.927322,152.504288 240.827637,151.099579 240.705170,149.373947 
	C238.552383,149.373947 236.727661,149.497940 234.926117,149.346436 
	C231.801682,149.083679 228.691605,148.650467 226.115997,147.743835 
M229.168167,79.592178 
	C229.815659,78.432098 230.245132,77.040367 231.167480,76.172340 
	C232.247742,75.155708 233.757111,74.595055 235.080353,73.836601 
	C235.754684,75.199738 236.928635,76.544006 236.980972,77.930618 
	C237.051590,79.800781 236.258957,81.703529 235.853058,83.519394 
	C238.386078,86.114151 240.109222,85.304947 240.733536,82.239426 
	C241.219879,79.851402 241.895782,76.993057 241.030167,74.966042 
	C239.920792,72.368210 237.762115,69.474960 235.308762,68.375664 
	C231.957550,66.874046 228.966888,69.102547 227.075089,72.265221 
	C226.053101,73.973724 225.226913,75.846870 223.952972,77.338837 
	C223.220505,78.196663 221.539612,79.083244 220.706558,78.784218 
	C219.848450,78.476204 219.042831,76.748062 219.033234,75.634216 
	C219.016861,73.735466 219.640930,71.831200 220.283051,68.391174 
	C217.955841,69.731544 216.044510,70.175171 215.391144,71.330315 
	C213.320511,74.991203 215.045563,81.591896 218.192993,83.514900 
	C221.770035,85.700378 225.261948,84.626968 229.168167,79.592178 
z"/>
<path fill="#3F95C3" opacity="1.000000" stroke="none" 
	d="
M255.000000,159.531342 
	C254.669235,157.919876 254.052582,155.840134 254.049805,153.759567 
	C253.989761,108.778976 253.998215,63.798298 254.268494,18.380030 
	C254.543549,17.942429 255.000000,18.000000 255.000000,18.000000 
	C255.000000,65.020897 255.000000,112.041786 255.000000,159.531342 
z"/>
<path fill="#F6FAFC" opacity="1.000000" stroke="none" 
	d="
M255.000000,17.529547 
	C255.000000,18.000000 254.543549,17.942429 254.316528,17.905186 
	C252.933990,9.092356 247.405807,4.228284 239.233276,1.260497 
	C244.260986,1.000000 249.521957,1.000000 255.000000,1.000000 
	C255.000000,6.351708 255.000000,11.705401 255.000000,17.529547 
z"/>
<path fill="#F5F9FC" opacity="1.000000" stroke="none" 
	d="
M239.471191,178.000000 
	C246.431290,175.461746 251.551178,170.534576 254.659836,163.088608 
	C255.000000,167.927475 255.000000,172.854950 255.000000,178.000000 
	C249.982193,178.000000 244.962296,178.000000 239.471191,178.000000 
z"/>
<path fill="#FAFAFB" opacity="1.000000" stroke="none" 
	d="
M16.528801,1.000000 
	C9.048003,3.335135 4.007195,8.724663 1.000500,16.624445 
	C1.000000,11.741570 1.000000,6.483139 1.000000,1.000000 
	C6.017719,1.000000 11.037662,1.000000 16.528801,1.000000 
z"/>
<path fill="#FEFEFE" opacity="1.000000" stroke="none" 
	d="
M130.224915,55.278969 
	C132.531815,47.053158 134.898224,39.259567 136.839279,31.361444 
	C137.598892,28.270624 139.033188,27.380989 142.014801,27.540756 
	C146.147980,27.762224 150.301910,27.596397 154.938538,27.596397 
	C154.938538,38.441345 154.938538,49.010960 154.938538,59.954147 
	C163.683456,59.954147 171.939972,59.954147 180.495178,59.954147 
	C180.495178,65.064774 180.495178,69.792725 180.495178,74.978363 
	C172.151947,74.978363 163.908035,74.978363 154.999542,74.978363 
	C154.999542,78.167778 154.999527,80.930542 154.999542,83.693298 
	C154.999557,97.180176 154.968094,110.667137 155.008331,124.153900 
	C155.049591,137.987732 160.038574,142.048264 173.748505,139.490509 
	C175.698883,139.126648 177.636993,138.697128 179.996704,138.212601 
	C179.996704,142.671982 180.190201,146.982559 179.869400,151.254532 
	C179.782181,152.415833 178.239441,154.308533 177.202652,154.425217 
	C168.660446,155.386551 159.953323,157.283981 151.539474,156.448303 
	C137.215561,155.025650 128.436539,143.601913 128.069473,127.603088 
	C127.714386,112.126595 127.909729,96.637459 127.864838,81.153877 
	C127.859581,79.339973 127.864120,77.526039 127.864120,75.248451 
	C124.058029,75.248451 120.474609,75.248451 116.548843,75.248451 
	C116.548843,70.391373 116.548843,65.993111 116.548843,61.079063 
	C119.238480,60.901604 122.000275,60.538616 124.755501,60.583111 
	C128.241409,60.639408 129.911545,59.034718 130.224915,55.278969 
z"/>
<path fill="#FDFDFD" opacity="1.000000" stroke="none" 
	d="
M49.802803,96.000092 
	C49.802803,116.137367 49.802803,135.774643 49.802803,155.774536 
	C40.757816,155.774536 32.031693,155.774536 22.946606,155.774536 
	C22.946606,123.427353 22.946606,91.025276 22.946606,58.310135 
	C31.562080,58.310135 40.329014,58.310135 49.802807,58.310135 
	C49.802807,70.643684 49.802807,83.071892 49.802803,96.000092 
z"/>
<path fill="#FDFDFD" opacity="1.000000" stroke="none" 
	d="
M101.408112,64.041031 
	C101.408142,94.850876 101.408142,125.166702 101.408142,155.810318 
	C92.397774,155.810318 83.638908,155.810318 74.536758,155.810318 
	C74.536758,123.455360 74.536758,91.054749 74.536758,58.325546 
	C83.263100,58.325546 91.998741,58.325546 101.172684,58.325546 
	C101.249786,60.035744 101.328934,61.791378 101.408112,64.041031 
z"/>
<path fill="#FCFCFC" opacity="1.000000" stroke="none" 
	d="
M49.122139,30.115761 
	C51.711647,38.493004 50.023567,44.619270 44.265312,48.600876 
	C39.149040,52.138573 31.967022,51.789864 27.135023,47.736603 
	C22.284588,43.667892 20.927788,38.351051 22.470177,32.478024 
	C23.995165,26.671244 28.140482,23.089840 34.037434,22.184565 
	C40.646233,21.170010 45.617683,24.045980 49.122139,30.115761 
z"/>
<path fill="#FCFCFC" opacity="1.000000" stroke="none" 
	d="
M99.816391,44.576504 
	C94.413033,50.741966 88.479904,52.486332 82.371056,49.967304 
	C76.534203,47.560432 73.163040,41.881577 73.602539,35.196411 
	C74.003548,29.096733 78.314232,23.830015 84.367508,22.412550 
	C90.017975,21.089407 94.987610,22.625114 98.704132,27.084620 
	C103.133217,32.399136 103.141808,38.257599 99.816391,44.576504 
z"/>
<path fill="#F5F8FC" opacity="1.000000" stroke="none" 
	d="
M219.316589,88.989716 
	C225.656952,91.105736 231.682968,93.011017 237.591446,95.229370 
	C239.003250,95.759438 240.023132,97.333298 241.223282,98.427078 
	C240.106110,99.596863 239.194916,101.201782 237.829880,101.847961 
	C234.765747,103.298492 231.476196,104.272865 226.926498,105.934982 
	C231.741913,107.694809 235.324783,108.826530 238.730682,110.353104 
	C239.805023,110.834641 240.881378,112.301079 241.057190,113.453957 
	C241.176682,114.237526 239.910629,115.740799 238.955215,116.099617 
	C231.199142,119.012611 223.370026,121.731194 215.558258,124.510742 
	C213.954056,120.327141 215.323761,118.485573 219.309341,117.563210 
	C223.454651,116.603897 227.433075,114.923386 231.484467,113.558235 
	C231.545746,113.056854 231.607010,112.555481 231.668274,112.054100 
	C226.392624,110.803833 221.116959,109.553558 214.851578,108.068733 
	C214.161819,106.279922 215.109909,104.487556 218.704422,103.503746 
	C223.160385,102.284142 227.457413,100.483932 232.955887,98.532486 
	C226.319244,96.384521 220.765930,94.587181 215.138779,92.765938 
	C215.138779,91.109909 215.138779,89.656517 215.138779,87.791336 
	C216.561661,88.201904 217.760422,88.547798 219.316589,88.989716 
z"/>
<path fill="#EFF4F9" opacity="1.000000" stroke="none" 
	d="
M225.845749,148.016281 
	C228.691605,148.650467 231.801682,149.083679 234.926117,149.346436 
	C236.727661,149.497940 238.552383,149.373947 240.705170,149.373947 
	C240.827637,151.099579 240.927322,152.504288 241.053238,154.278442 
	C232.334976,154.278442 223.931961,154.278442 215.115234,154.278442 
	C214.230225,145.704681 223.553787,146.172729 226.454025,140.967575 
	C223.961426,135.955765 214.130646,136.989212 215.044479,128.184952 
	C223.679031,128.184952 232.112442,128.184952 240.783447,128.184952 
	C240.783447,129.766220 240.783447,131.160889 240.783447,133.030701 
	C235.594620,133.030701 230.536743,133.030701 225.478851,133.030701 
	C225.376495,133.335754 225.274139,133.640823 225.171783,133.945877 
	C227.170380,135.256775 229.118668,136.653610 231.178940,137.859131 
	C234.555756,139.834976 235.050232,141.788712 231.458542,144.060699 
	C229.631973,145.216125 227.894012,146.511642 225.845749,148.016281 
z"/>
<path fill="#F1F5FA" opacity="1.000000" stroke="none" 
	d="
M228.993759,79.920280 
	C225.261948,84.626968 221.770035,85.700378 218.192993,83.514900 
	C215.045563,81.591896 213.320511,74.991203 215.391144,71.330315 
	C216.044510,70.175171 217.955841,69.731544 220.283051,68.391174 
	C219.640930,71.831200 219.016861,73.735466 219.033234,75.634216 
	C219.042831,76.748062 219.848450,78.476204 220.706558,78.784218 
	C221.539612,79.083244 223.220505,78.196663 223.952972,77.338837 
	C225.226913,75.846870 226.053101,73.973724 227.075089,72.265221 
	C228.966888,69.102547 231.957550,66.874046 235.308762,68.375664 
	C237.762115,69.474960 239.920792,72.368210 241.030167,74.966042 
	C241.895782,76.993057 241.219879,79.851402 240.733536,82.239426 
	C240.109222,85.304947 238.386078,86.114151 235.853058,83.519394 
	C236.258957,81.703529 237.051590,79.800781 236.980972,77.930618 
	C236.928635,76.544006 235.754684,75.199738 235.080353,73.836601 
	C233.757111,74.595055 232.247742,75.155708 231.167480,76.172340 
	C230.245132,77.040367 229.815659,78.432098 228.993759,79.920280 
z"/>
</svg>