<?xml version="1.0" encoding="UTF-8"?>
<!DOCTYPE svg PUBLIC "-//W3C//DTD SVG 1.1//EN" "http://www.w3.org/Graphics/SVG/1.1/DTD/svg11.dtd">
<svg xmlns="http://www.w3.org/2000/svg" version="1.1" width="241px" height="262px" style="shape-rendering:geometricPrecision; text-rendering:geometricPrecision; image-rendering:optimizeQuality; fill-rule:evenodd; clip-rule:evenodd" xmlns:xlink="http://www.w3.org/1999/xlink">
<g><path style="opacity:1" fill="#fcfcfc" d="M -0.5,-0.5 C 79.8333,-0.5 160.167,-0.5 240.5,-0.5C 240.5,86.8333 240.5,174.167 240.5,261.5C 160.167,261.5 79.8333,261.5 -0.5,261.5C -0.5,174.167 -0.5,86.8333 -0.5,-0.5 Z"/></g>
<g><path style="opacity:1" fill="#585859" d="M 119.5,2.5 C 156.636,22.8366 193.47,43.8366 230,65.5C 230.667,107.833 230.667,150.167 230,192.5C 194.015,213.906 157.848,234.906 121.5,255.5C 84.891,234.732 48.391,213.732 12,192.5C 11.3333,150.167 11.3333,107.833 12,65.5C 48.2074,44.8247 84.0408,23.8247 119.5,2.5 Z"/></g>
<g><path style="opacity:1" fill="#fbfbfb" d="M 120.5,6.5 C 155.778,26.8098 191.112,47.1431 226.5,67.5C 227.833,108.5 227.833,149.5 226.5,190.5C 191.336,210.581 156.336,230.914 121.5,251.5C 86.2516,231.293 51.0849,210.96 16,190.5C 15.3333,149.5 15.3333,108.5 16,67.5C 50.9139,47.2935 85.7472,26.9601 120.5,6.5 Z"/></g>
<g><path style="opacity:1" fill="#52bdbf" d="M 113.5,74.5 C 113.832,64.1452 113.499,53.8119 112.5,43.5C 111.893,43.6236 111.56,43.9569 111.5,44.5C 92.5274,55.3215 73.5274,66.1548 54.5,77C 44.3748,79.8795 40.2081,76.0461 42,65.5C 42.8333,64.6667 43.6667,63.8333 44.5,63C 69.7552,48.4543 95.2552,34.2876 121,20.5C 124.767,20.5208 127.434,22.1874 129,25.5C 129.5,37.8288 129.667,50.1622 129.5,62.5C 151.503,62.3334 173.503,62.5 195.5,63C 201.276,66.9845 201.943,71.6512 197.5,77C 172.598,91.9508 147.264,106.117 121.5,119.5C 114.414,118.011 111.914,113.677 114,106.5C 128.718,97.5541 143.552,88.7208 158.5,80C 144.833,79.6667 131.167,79.3333 117.5,79C 115.959,77.6288 114.625,76.1288 113.5,74.5 Z"/></g>
<g><path style="opacity:1" fill="#ecf7f7" d="M 184.5,73.5 C 185.289,73.2172 185.956,72.7172 186.5,72C 165.663,71.1707 144.996,71.3374 124.5,72.5C 121.9,75.2535 119.9,74.7535 118.5,71C 119.777,64.297 120.444,57.4637 120.5,50.5C 120.167,44.1667 119.833,37.8333 119.5,31.5C 95.0612,45.538 70.7278,59.2047 46.5,72.5C 46.2865,70.8561 46.6198,69.3561 47.5,68C 50.7536,67.7497 53.7536,66.7497 56.5,65C 75.5963,53.5673 94.9297,42.5673 114.5,32C 116.954,30.1709 119.287,28.3376 121.5,26.5C 124.718,27.3217 125.218,28.9883 123,31.5C 122.179,44.0756 122.345,56.5756 123.5,69C 145.167,69.6667 166.833,69.6667 188.5,69C 192.995,66.8271 194.329,68.1604 192.5,73C 188.951,73.7736 185.618,75.107 182.5,77C 161.335,89.3946 140.335,101.395 119.5,113C 118.167,111.667 118.167,110.333 119.5,109C 121.952,108.71 124.285,108.044 126.5,107C 145.721,95.606 165.055,84.4393 184.5,73.5 Z"/></g>
<g><path style="opacity:1" fill="#c6e8e9" d="M 111.5,44.5 C 111.56,43.9569 111.893,43.6236 112.5,43.5C 113.499,53.8119 113.832,64.1452 113.5,74.5C 112.833,64.5 112.167,54.5 111.5,44.5 Z"/></g>
<g><path style="opacity:1" fill="#ceecec" d="M 124.5,72.5 C 144.996,71.3374 165.663,71.1707 186.5,72C 185.956,72.7172 185.289,73.2172 184.5,73.5C 164.674,72.5029 144.674,72.1695 124.5,72.5 Z"/></g>
<g><path style="opacity:1" fill="#97999c" d="M 31.5,88.5 C 34.1873,88.3359 36.854,88.5026 39.5,89C 64.7113,102.856 89.5447,117.356 114,132.5C 115.447,141.72 111.614,145.553 102.5,144C 83.4144,133.04 64.2477,122.207 45,111.5C 44.3333,119.167 44.3333,126.833 45,134.5C 56.1667,141 67.3333,147.5 78.5,154C 82.7071,157.07 83.5405,160.903 81,165.5C 79.2568,167.871 76.9234,169.205 74,169.5C 64.165,165.166 54.665,160.166 45.5,154.5C 44.6681,163.148 44.1681,171.814 44,180.5C 40.9598,186.368 36.4598,187.868 30.5,185C 29.2986,184.097 28.4652,182.931 28,181.5C 27.3333,151.833 27.3333,122.167 28,92.5C 29.3756,91.2949 30.5423,89.9616 31.5,88.5 Z"/></g>
<g><path style="opacity:1" fill="#535455" d="M 203.5,88.5 C 211.709,87.8724 215.209,91.5391 214,99.5C 204.02,118.127 193.52,136.46 182.5,154.5C 191.806,160.491 201.473,165.991 211.5,171C 214.663,174.118 215.33,177.785 213.5,182C 210.51,185.197 206.843,186.197 202.5,185C 193.802,180.319 185.135,175.652 176.5,171C 175.5,170.333 174.5,170.333 173.5,171C 163.193,188.45 153.027,205.95 143,223.5C 137.186,229.205 132.186,228.538 128,221.5C 127.333,219.5 127.333,217.5 128,215.5C 138.334,197.982 148.501,180.316 158.5,162.5C 150.385,156.936 141.718,152.103 132.5,148C 125.606,142.159 125.939,136.825 133.5,132C 135.167,131.333 136.833,131.333 138.5,132C 147.135,136.652 155.802,141.319 164.5,146C 165.833,146.667 167.167,146.667 168.5,146C 178.333,128.833 188.167,111.667 198,94.5C 199.36,91.9774 201.193,89.9774 203.5,88.5 Z"/></g>
<g><path style="opacity:1" fill="#f2f3f3" d="M 33.5,94.5 C 54.6704,105.759 75.6704,117.593 96.5,130C 100.191,132.347 104.191,133.847 108.5,134.5C 110.224,138.612 108.89,140.112 104.5,139C 103.929,137.795 103.262,136.628 102.5,135.5C 82.0585,124.233 61.7251,112.733 41.5,101C 39.9751,99.9914 38.3084,99.4914 36.5,99.5C 36.3335,111.838 36.5001,124.171 37,136.5C 37.956,137.579 38.7894,138.745 39.5,140C 48.1667,145 56.8333,150 65.5,155C 68.8662,157.184 72.5328,158.517 76.5,159C 77.8333,160.333 77.8333,161.667 76.5,163C 74.8659,163.494 73.1992,163.66 71.5,163.5C 71.719,162.325 71.3857,161.325 70.5,160.5C 59.6555,153.413 48.3221,147.413 36.5,142.5C 36.3335,153.505 36.5002,164.505 37,175.5C 39.2007,178.015 38.8674,180.015 36,181.5C 32.729,180.626 32.0623,178.959 34,176.5C 34.6667,164.833 34.6667,153.167 34,141.5C 32,140.167 32,138.833 34,137.5C 34.1667,131 34.3333,124.5 34.5,118C 34.4452,110.87 33.7785,103.87 32.5,97C 32.7432,96.0979 33.0766,95.2646 33.5,94.5 Z"/></g>
<g><path style="opacity:1" fill="#e9e9e9" d="M 204.5,93.5 C 208.677,92.8416 210.177,94.5082 209,98.5C 207.488,99.2567 206.154,100.257 205,101.5C 194.293,120.415 183.46,139.248 172.5,158C 182.52,163.367 192.52,168.7 202.5,174C 204.5,174.333 206.5,174.667 208.5,175C 210.5,179.333 209.167,181 204.5,180C 203.743,178.488 202.743,177.154 201.5,176C 191.657,170.816 181.823,165.65 172,160.5C 160.76,178.639 149.76,196.972 139,215.5C 138.505,217.473 138.338,219.473 138.5,221.5C 136.833,221.5 135.167,221.5 133.5,221.5C 145.085,201.019 156.752,180.352 168.5,159.5C 158.483,153.669 148.316,148.002 138,142.5C 134.159,143.995 132.826,142.661 134,138.5C 137.384,136.727 139.551,137.727 140.5,141.5C 150.201,146.787 160.034,151.787 170,156.5C 180.655,138.529 191.321,120.529 202,102.5C 203.047,99.5338 203.881,96.5338 204.5,93.5 Z"/></g>
</svg>
